<?xml version="1.0" encoding="UTF-8"?>
<svg width="64px" height="64px" viewBox="0 0 64 64" version="1.1" xmlns="http://www.w3.org/2000/svg" xmlns:xlink="http://www.w3.org/1999/xlink">
    <!-- Generator: Sketch 53.2 (72643) - https://sketchapp.com -->
    <title>Chrome</title>
    <desc>Created with Sketch.</desc>
    <g id="1-Part-1-✓" stroke="none" stroke-width="1" fill="none" fill-rule="evenodd">
        <g id="Store-Locator-Result-Copy" transform="translate(-223.000000, -631.000000)" fill-rule="nonzero">
            <g id="Group" transform="translate(215.000000, 631.000000)">
                <g id="Chrome" transform="translate(8.000000, 0.000000)">
                    <path d="M64,32 C64,49.6704 49.6704,64 32,64 C14.3296,64 0,49.6704 0,32 C0,14.3296 14.3296,0 32,0 C49.6704,0 64,14.3296 64,32 Z" id="Path" fill="#4CAF50"></path>
                    <path d="M32,0 L32,32 L44.8,38.4 L30.6512,64 L32,64 C49.6848,64 64,49.6848 64,32 C64,14.3152 49.6848,0 32,0 Z" id="Path" fill="#FFC107"></path>
                    <path d="M64,32 C64,49.6704 49.6704,64 32,64 C14.3296,64 0,49.6704 0,32 C0,14.3296 14.3296,0 32,0 C49.6704,0 64,14.3296 64,32 Z" id="Path" fill="#4CAF50"></path>
                    <path d="M32,0 L32,32 L44.8,38.4 L30.6512,64 L32,64 C49.6848,64 64,49.6848 64,32 C64,14.3152 49.6848,0 32,0 Z" id="Path" fill="#FFC107"></path>
                    <path d="M60.544,17.6 L32,17.6 L32,38.4 L27.2,36.8 L5.056,14.816 L5.024,14.816 C10.688,5.904 20.656,0 32,0 C44.48,0 55.28,7.168 60.544,17.6 Z" id="Path" fill="#F44336"></path>
                    <polygon id="Path" fill="#DD2C00" points="5.0528 14.8224 19.2016 38.6016 27.2 36.8"></polygon>
                    <polygon id="Path" fill="#558B2F" points="30.6512 64 44.9456 38.3056 38.4 33.6"></polygon>
                    <polygon id="Path" fill="#F9A825" points="60.584 17.6 32 17.6 29.4736 24.928"></polygon>
                    <path d="M46.4,32 C46.4,39.9504 39.9504,46.4 32,46.4 C24.0496,46.4 17.6,39.9504 17.6,32 C17.6,24.0496 24.0496,17.6 32,17.6 C39.9504,17.6 46.4,24.0496 46.4,32 Z" id="Path" fill="#FFFFFF"></path>
                    <path d="M43.2,32 C43.2,38.1872 38.1872,43.2 32,43.2 C25.8128,43.2 20.8,38.1872 20.8,32 C20.8,25.8128 25.8128,20.8 32,20.8 C38.1872,20.8 43.2,25.8128 43.2,32 Z" id="Path" fill="#2196F3"></path>
                </g>
            </g>
        </g>
    </g>
</svg>