<?xml version="1.0" encoding="UTF-8"?>
<svg width="536px" height="452px" viewBox="0 0 536 452" version="1.1" xmlns="http://www.w3.org/2000/svg" xmlns:xlink="http://www.w3.org/1999/xlink">
    <!-- Generator: Sketch 53.2 (72643) - https://sketchapp.com -->
    <title>Group 6</title>
    <desc>Created with Sketch.</desc>
    <g id="1-Part-1-✓" stroke="none" stroke-width="1" fill="none" fill-rule="evenodd">
        <g id="Store-Locator-Result-Copy" transform="translate(-913.000000, -292.000000)">
            <g id="Group-6" transform="translate(889.000000, 253.000000)">
                <g id="Scene/Wireframe">
                    <path d="M542.298908,147.202176 C541.962845,146.95779 541.165545,146.871134 540.794626,146.797925 C539.252859,146.49399 537.664617,146.361659 536.092816,146.361659 C531.246103,146.368916 526.320689,146.844668 521.554429,147.66811 C518.528329,148.190819 514.870002,149.949972 511.859686,148.994625 C506.615309,147.330025 501.315031,147.411772 496.339416,149.788186 C491.790402,151.961194 488.337044,156.088224 486.321763,160.547576 C486.017707,161.220758 484.784161,163.698341 484.434945,165.368491 C484.285657,165.709991 484.142288,166.053839 484.012948,166.402809 C483.645976,167.393587 483.316928,168.401866 483.011117,169.412066 C482.880463,169.842996 482.551854,170.794501 482.942063,170.978484 C482.318604,172.129127 481.765953,173.314986 481.305593,174.539264 C479.966823,178.09983 478.503097,182.005525 478.032653,185.779315 C477.858374,187.176691 477.851797,188.582177 478.013581,189.982328 C478.093596,190.674293 478.060494,192.065906 478.529623,192.59203 C479.525315,193.708522 480.036534,192.145518 479.924294,191.401048 C479.067148,185.727023 480.722251,180.398766 482.683823,175.065174 C483.952225,171.616236 486.03634,168.460988 488.371023,165.603485 C490.260472,163.290462 492.287371,161.468986 494.877444,159.935437 C498.044721,158.060174 501.430997,156.544126 504.786145,155.023384 C506.992804,154.022788 509.202093,153.049086 511.470353,152.187011 C511.974776,151.995131 512.768349,151.503371 513.327577,151.50145 C514.510263,151.497181 516.186193,152.369927 517.328543,152.694566 C521.085958,153.762821 524.891381,155.130529 528.774627,155.676076 C531.265394,156.026327 533.598981,155.632108 535.928402,154.802262 C536.166474,154.717741 536.565453,154.499821 537.054311,154.188629 C538.78373,153.523344 540.419762,152.686028 541.844247,151.478185 C542.665003,150.782165 543.40969,149.882739 544.088831,149.05951 C544.292047,148.813417 544.381927,148.531252 544.384996,148.263174 C544.538888,148.182708 544.641044,148.088796 544.664062,147.979089 C544.833518,147.16888 543.288243,147.153939 542.298908,147.202176" id="Twisted-Leaf" fill="#89C5CC"></path>
                    <path d="M72.9938037,206.880421 C71.7702652,206.880421 70.5504571,206.90487 69.3284546,206.968139 C68.3969767,207.016609 66.973538,206.824444 66.1853475,207.402226 C65.3664369,208.002312 65.4228302,209.230795 65.5507576,210.098325 C66.2270391,214.686046 67.8775872,218.754108 71.3305287,222.004397 C76.6470842,227.009262 82.741956,229.552229 89.9541623,230.684629 C95.0203489,231.480098 99.6972677,230.375579 103.42669,226.790288 C106.151565,231.823249 108.218809,237.392813 109.256052,243.014065 C109.767762,245.787801 109.923995,248.528081 109.834029,251.352433 C109.7761,253.161485 109.675821,254.966247 109.480967,256.766721 C109.396487,257.549106 108.99559,258.733408 109.303449,259.472685 C109.66463,260.340859 110.882683,260.424931 111.429501,259.684581 C111.884597,259.06841 111.800995,257.858372 111.894472,257.129175 C112.049389,255.91785 112.192896,254.705667 112.295589,253.488766 C112.462355,251.519076 112.585674,249.54381 112.576678,247.566613 C112.555832,243.124302 111.563353,238.664619 110.205743,234.447715 C107.601335,226.357703 103.375563,219.16782 96.8034324,213.526623 C92.7624201,210.05779 88.1375061,208.653013 82.8902902,207.898938 C79.623425,207.429463 76.3032383,206.880421 72.9938037,206.880421" id="Fill-16" fill="#DDE3E9" transform="translate(89.026700, 233.533676) rotate(-39.000000) translate(-89.026700, -233.533676) "></path>
                    <path d="M98.2592378,216.78679 C97.266978,208.885511 96.2165693,201.029486 94.2941481,193.281767 C93.1610145,188.716136 91.7088306,184.246587 90.3894015,179.732857 C90.5076739,180.299057 90.6123418,180.868903 90.7031855,181.440251 C90.2441392,180.094024 89.285452,178.806348 88.7340259,177.46484 C88.1189652,175.968699 87.6243713,174.414652 87.1545729,172.869826 C86.2373579,169.854811 85.3719282,166.834648 84.3397322,163.854163 C83.1894832,160.533528 81.8650071,157.268012 80.6307166,153.976545 C79.5831605,151.183077 78.6020916,148.250204 77.2383377,145.584345 C76.4951302,144.131313 75.8287231,142.570617 75.0991202,141.089489 C74.8548953,140.593849 72.7593443,135.056885 72.7751432,135.056885 C73.1216222,135.056885 74.4210833,137.518139 74.6363436,137.879735 C75.2654477,138.935784 75.7999778,140.034727 76.3402131,141.135814 C76.5734665,139.828407 76.9427663,138.548452 77.5244737,137.346563 C77.7039669,136.975531 78.9639307,134.239326 79.3742637,134.239326 C79.5792108,134.239326 77.6853154,139.406331 77.4459179,139.859934 C77.2515035,140.228393 76.8872506,140.695508 76.7604204,141.087559 C76.5554733,141.720673 76.6610189,141.562395 76.830199,142.133527 C77.1402527,143.180354 77.8264086,144.205519 78.2582457,145.210739 C78.4952294,145.747342 79.0793506,147.607224 79.6476728,148.440224 C81.1110476,151.300607 82.1509237,154.788313 83.2649669,157.872817 C83.5045838,156.357374 83.9188666,154.896191 84.4926745,153.470182 C84.6287208,153.131535 85.7113855,149.989339 86.0231948,149.989339 C86.3740624,149.989339 85.030496,155.021871 84.8479308,155.456601 C84.5089123,156.264079 83.9759182,157.045607 83.6939514,157.867455 C83.3845559,158.769515 83.9280826,159.581497 84.2743422,160.504146 C85.54813,163.898558 86.6648064,167.326856 87.6851532,170.801266 C93.6108449,168.205968 94.7891809,160.567629 95.1758155,154.934796 C95.4542715,150.875099 94.8258256,146.74098 93.8405875,142.802887 C92.5257664,137.547093 90.3136983,132.472953 87.9666812,127.587762 C85.2319322,121.895521 81.4711313,116.811517 76.9366222,112.355051 C74.565029,110.024194 71.8640722,108.004103 69.1207655,106.111194 C67.78071,105.1864 66.4040098,104.418813 64.8396974,103.9043 C64.1344513,103.672673 63.4105536,103.504958 62.6787564,103.37649 C62.1227223,103.278907 60.9882721,102.763321 60.5272509,102.894791 C56.7627197,103.936256 53.9329578,105.668528 51.7391024,108.888791 C49.6622029,111.937049 48.373055,115.581318 47.6563985,119.156314 C46.8585531,123.137301 46.6661135,127.151102 47.3509528,131.157611 C47.8734142,134.214448 48.7746109,137.211233 49.6771241,140.178636 C52.8869378,150.732905 58.5131082,162.048113 68.6083978,167.837723 C71.8761408,169.711974 75.5019927,170.807485 79.224174,171.388269 C80.1012334,171.525101 80.9774151,171.655284 81.8650071,171.705256 C82.4633912,171.739142 84.430576,171.341729 84.8635102,171.599737 C85.4570668,171.953397 85.7980602,173.959761 86.0567675,174.687243 C88.0224163,180.216486 89.7802654,185.808355 91.3752979,191.450196 C93.0721456,197.452774 94.4201006,203.513688 95.542921,209.642161 C96.0203994,212.248826 96.4855898,214.851201 96.8816599,217.472021 C96.9740397,218.081759 96.8785879,219.999547 97.4736805,220.53808 C97.8500019,220.878658 98.3818989,220.739038 98.6057169,220.322109 C98.9949847,219.597202 98.3608336,217.59577 98.2592378,216.78679" id="Leaf" fill="#C1DEE2" transform="translate(72.831490, 161.801483) rotate(-37.000000) translate(-72.831490, -161.801483) "></path>
                    <path d="M536.139334,176.410133 C533.990436,175.940685 531.617721,175.976614 529.428809,176.01534 C517.689677,176.174979 506.162048,181.732838 498.659592,190.613408 C492.272699,198.173629 490.516468,207.57313 489.254699,217.074826 C489.1296,218.01824 489.075954,218.95563 489.00538,219.900981 C488.990209,220.103863 488.967564,220.284801 488.94338,220.455196 C488.447159,220.898826 488.186846,221.416037 488.480577,221.984237 C487.38744,224.376442 486.462715,226.829318 485.669245,229.359217 C483.333906,236.805841 480.958334,244.39403 482.421713,252.224474 C482.763593,247.915321 483.482751,243.508921 484.342838,239.27055 C484.392306,239.02722 484.445731,238.785827 484.501356,238.545294 C484.507072,238.519907 484.512349,238.49452 484.518065,238.469348 C484.822569,237.171373 485.218315,235.912341 485.699585,234.673101 C485.704642,234.659547 485.709479,234.646208 485.714755,234.632869 C485.778295,234.469788 485.845791,234.307569 485.912408,234.145349 C486.05026,233.809506 486.191849,233.474309 486.342012,233.140833 C486.392799,233.027236 486.441608,232.912564 486.488438,232.79703 C487.189127,231.079737 487.485057,229.144717 488.112754,227.367828 C488.262917,226.963784 488.419896,226.561247 488.58435,226.160861 C488.594024,226.13741 488.603918,226.113959 488.613811,226.090508 C489.058366,225.013058 489.54953,223.948732 490.068836,222.895594 C490.351134,222.68346 490.501957,222.157214 490.745341,221.678945 C490.795689,221.584711 491.189236,220.95627 491.30642,220.59418 C491.612244,220.002529 491.916968,219.410663 492.22499,218.820088 C492.215755,218.823531 492.206521,218.826973 492.197287,218.830415 C492.505529,218.263291 492.81465,217.698534 493.121353,217.136143 C493.18885,217.012649 493.257006,216.88894 493.324942,216.765016 C493.435092,216.567728 493.545241,216.370654 493.65517,216.174011 C494.683449,214.33387 495.773728,212.530518 496.906,210.749542 C497.3101,210.114002 498.275499,209.202644 498.46062,208.489006 C498.467436,208.462328 498.468975,208.437801 498.473152,208.412199 C500.930072,204.961477 503.758554,201.778611 507.150533,199.256672 C506.740497,199.699873 505.868977,201.203956 505.638565,201.501718 C504.933478,202.413506 504.167931,203.262256 503.399525,204.121332 C502.023429,205.66027 500.679873,207.248045 499.486041,208.927043 C497.302845,211.997602 495.419316,215.229091 493.6389,218.525554 C493.621971,218.544917 493.603503,218.563204 493.587454,218.582998 C492.692629,219.68605 492.129351,221.353214 491.485165,222.615044 C494.034426,221.434324 496.853234,220.665178 499.469552,219.616773 C502.078614,218.571595 504.616662,217.407657 507.066987,216.040836 C510.323753,214.224361 513.7021,212.173376 516.779242,209.852384 C520.305555,207.664998 523.268809,204.654248 525.884468,201.494833 C528.979198,197.756676 531.815374,193.985817 533.569406,189.446888 C534.431032,187.216472 535.108857,184.890747 535.510758,182.537913 C535.528347,182.435289 535.550772,182.324058 535.575177,182.208525 C535.986312,181.39592 536.353916,180.565027 536.662378,179.714986 C537.152223,178.366883 538.309119,176.883884 536.139334,176.410133" id="Fill-10" fill="#69A1AC"></path>
                    <path d="M70.710975,195.063512 C70.4495373,194.106331 70.2925567,193.116664 70.3651455,192.115257 C70.3835877,191.862131 70.5958952,190.023512 70.8014159,190.023512 C71.2800298,190.023512 70.6208292,194.768735 70.710975,195.063512 M62.3814803,199.205071 C62.410484,199.216699 62.9374561,200.229566 63.1103237,200.523652 C63.4775591,201.149236 63.8691808,201.759653 64.2714803,202.355071 C63.5166636,201.374056 62.8394785,200.42759 62.3814803,199.205071 M90.6528768,169.070515 C91.1012071,168.692345 90.8559292,167.747573 90.3241574,168.269193 C89.894837,168.691854 89.8820516,168.64998 89.3423731,168.622992 C88.9041366,168.601073 88.4379741,168.464984 87.9975506,168.410843 C87.063375,168.296018 86.1344146,168.247438 85.1945193,168.313029 C83.179809,168.453371 81.2194367,168.933281 79.3537773,169.679644 C76.0980418,170.982304 72.8115204,172.670332 70.221467,175.020976 C66.1032216,178.758517 62.796008,183.874614 60.8445518,188.97599 C59.6358266,192.135317 58.9851169,195.306257 60.0838204,198.592186 C60.6327515,200.234414 61.5016542,201.797148 62.7626987,203.030946 C63.0924275,203.353339 63.5269629,203.603109 63.8354949,203.941532 C64.3099006,204.461843 64.2012247,204.295167 63.892861,205.037605 C63.5560665,205.848251 63.2223002,206.659878 62.8907209,207.47265 C62.0228276,209.60084 61.1683926,211.753075 60.5382068,213.961414 C60.3306123,214.68815 60.170963,215.426007 60.0552214,216.17188 C59.9674059,216.735864 59.4576721,218.881557 59.9012919,219.458136 C60.6393125,220.417792 60.9537324,218.944203 60.9774527,218.440085 C60.9981449,217.99845 61.0366693,217.555833 61.0918484,217.116815 C61.2308056,216.011419 61.4821397,214.926305 61.8086721,213.860165 C62.1614483,212.707989 62.5937968,211.577403 63.0234536,210.450579 C63.4243433,209.399815 63.8439063,208.35592 64.2717126,207.31546 C64.509252,206.737409 64.7496512,206.160503 64.9900504,205.583597 C65.0721461,205.386496 65.1143716,204.974794 65.3317234,205.143761 C65.8068021,203.911926 66.5803189,202.742084 67.2216078,201.585654 C68.0072372,200.169314 68.8088483,198.755918 69.7117332,197.406477 C70.3629476,196.433244 71.0488172,195.480458 71.7992866,194.576251 C72.2378596,194.047924 72.7067138,193.55133 73.2048398,193.075346 C73.4785483,192.813963 74.4130603,191.692701 74.7900615,191.692701 C74.628057,191.692701 73.8952515,193.116728 73.781024,193.284877 C73.3246188,193.957798 72.8291845,194.598823 72.3234881,195.237395 C71.3851069,196.422449 70.5143537,197.650522 69.7267056,198.935189 C69.9539829,199.07046 70.8990934,198.447264 71.1808769,198.327041 C71.8129132,198.057644 72.4626135,197.827339 73.1282956,197.649704 C74.3008516,197.336634 75.7339943,196.980054 76.8915779,196.980054 C76.5504095,196.980054 75.7585557,197.536842 75.4034243,197.688142 C74.8343057,197.930387 74.2507194,198.151369 73.659058,198.335874 C73.1128185,198.506149 72.5566535,198.636022 71.9967875,198.755591 C71.436585,198.874996 70.4243512,198.879576 69.9146174,199.177925 C69.8838315,199.195917 69.915795,199.484779 69.7951748,199.562147 C69.6737135,199.64017 69.3258159,199.614653 69.2975535,199.63608 C68.8801774,199.949478 68.5883001,200.85761 68.3371342,201.304316 C67.6854151,202.462545 67.0505189,203.62977 66.4093983,204.79356 C66.2107199,205.154066 65.9464321,205.400727 66.1212221,205.693024 C66.307788,206.004622 67.1891396,206.19796 67.5335044,206.311477 C68.8122128,206.73332 70.1079125,206.873008 71.4411271,206.651536 C73.9383181,206.237053 76.1057803,205.156192 78.0599282,203.626172 C85.544772,197.765837 91.683784,190.391513 93.5578549,181.028358 C94.3335587,177.151947 95.1693203,171.106289 90.6528768,169.070515" id="Leave-the-Leaf!" fill="#89C5CC" transform="translate(76.846783, 193.945733) scale(-1, 1) rotate(-302.000000) translate(-76.846783, -193.945733) "></path>
                    <g id="Background-Shape-2" opacity="0.6" stroke-width="1" transform="translate(31.107940, 262.954346)" fill="#DDE3E9">
                        <path d="M527.806989,107.350288 C535.504036,155.331303 348.837537,186.627677 188.169354,164.786692 C27.5011708,142.945707 -46.2057737,57.6541987 30.4624047,12.2075301 C107.130583,-33.2391385 520.109942,59.3692741 527.806989,107.350288 Z" id="Background-Shape"></path>
                    </g>
                    <g id="Mobile3" stroke-width="1" transform="translate(123.401588, 71.603621)">
                        <rect id="Container" fill="#F2F2F2" x="0" y="0" width="100.17" height="190.26" rx="5.04"></rect>
                        <circle id="Touch" fill="#FFFFFF" cx="49.77" cy="168.84" r="9.45"></circle>
                        <g id="Camera" transform="translate(40.320000, 10.080000)" fill="#FFFFFF">
                            <circle id="Lens" cx="1.26" cy="1.26" r="1.26"></circle>
                            <rect id="Sensor" x="5.67" y="0" width="13.23" height="2.52" rx="1.26"></rect>
                        </g>
                        <g id="Rows" transform="translate(8.820000, 17.640000)">
                            <g id="Row">
                                <rect id="Background" fill="#FFFFFF" x="0" y="0" width="82.53" height="34.02" rx="2.52"></rect>
                                <g id="Text" transform="translate(24.570000, 10.206000)" fill="#DDE3E9">
                                    <rect id="Name" x="0" y="0" width="45.99" height="5.103" rx="1.89"></rect>
                                    <rect id="Name" x="0" y="8.505" width="30.87" height="5.103" rx="1.89"></rect>
                                </g>
                                <circle id="Avatar" fill="#C5CFD6" cx="13.23" cy="17.01" r="7.56"></circle>
                            </g>
                            <g id="Row" transform="translate(0.000000, 43.000000)">
                                <rect id="Background" fill="#FFFFFF" x="0" y="0" width="82.53" height="26.46" rx="2.52"></rect>
                                <g id="Text" transform="translate(24.570000, 7.938000)" fill="#DDE3E9">
                                    <rect id="Name" x="0" y="0" width="45.99" height="3.969" rx="1.89"></rect>
                                    <rect id="Name" x="0" y="6.615" width="30.87" height="3.969" rx="1.89"></rect>
                                </g>
                                <circle id="Avatar" fill="#C5CFD6" cx="13.23" cy="13.23" r="7.56"></circle>
                            </g>
                            <g id="Row" transform="translate(0.000000, 78.000000)">
                                <rect id="Background" fill="#FFFFFF" x="0" y="0" width="82.53" height="26.46" rx="2.52"></rect>
                                <g id="Text" transform="translate(24.570000, 7.938000)" fill="#DDE3E9">
                                    <rect id="Name" x="0" y="0" width="45.99" height="3.969" rx="1.89"></rect>
                                    <rect id="Name" x="0" y="6.615" width="30.87" height="3.969" rx="1.89"></rect>
                                </g>
                                <circle id="Avatar" fill="#AFB9C5" cx="13.23" cy="13.23" r="7.56"></circle>
                            </g>
                            <g id="Row" transform="translate(0.000000, 113.000000)">
                                <rect id="Background" fill="#FFFFFF" x="0" y="0" width="82.53" height="26.46" rx="2.52"></rect>
                                <g id="Text" transform="translate(24.570000, 7.938000)" fill="#DDE3E9">
                                    <rect id="Name" x="0" y="0" width="45.99" height="3.969" rx="1.89"></rect>
                                    <rect id="Name" x="0" y="6.615" width="30.87" height="3.969" rx="1.89"></rect>
                                </g>
                                <circle id="Avatar" fill="#C5CFD6" cx="13.23" cy="13.23" r="7.56"></circle>
                            </g>
                        </g>
                    </g>
                    <g id="Mobile3" stroke-width="1" transform="translate(141.782446, 90.700864)">
                        <g id="Group" transform="translate(0.000000, 137.340000)" fill="#89C5CC">
                            <path d="M7.64811367,0 C6.81347339,0 5.98137775,0.0167594254 5.14778526,0.0601281141 C4.51237494,0.09335294 3.54137216,-0.0383702635 3.00370576,0.357681422 C2.44508353,0.769022408 2.48355243,1.61111003 2.57081844,2.20577561 C3.03214579,5.35052008 4.15807194,8.13905325 6.51350583,10.3670278 C10.1402094,13.7977115 14.2978436,15.5408388 19.2176709,16.3170648 C22.6735846,16.8623342 25.8639581,16.1052198 28.4079944,13.6476118 C30.2667754,17.0975542 31.6769522,20.9153219 32.3845104,24.7685196 C32.7335745,26.6698324 32.8401498,28.5482111 32.7787792,30.4842188 C32.7392625,31.7242693 32.6708567,32.9613795 32.5379369,34.1955494 C32.4803084,34.7318511 32.206835,35.5436541 32.4168423,36.0504062 C32.6632228,36.6455128 33.494121,36.7031417 33.8671345,36.1956546 C34.17758,35.7732876 34.1205502,34.9438431 34.1843158,34.4440006 C34.289993,33.613674 34.3878866,32.7827593 34.4579389,31.9486103 C34.571699,30.5984475 34.6558217,29.2444623 34.6496846,27.8891541 C34.6354646,24.8440841 33.958442,21.7871061 33.0323446,18.8965462 C31.2557403,13.3510876 28.3731179,8.42264037 23.8899201,4.55577048 C21.133332,2.17799025 17.9784336,1.21505834 14.3990303,0.698162381 C12.1705288,0.37635201 9.90565396,0 7.64811367,0" id="Fill-16"></path>
                            <path d="M20.5198985,22.05 C11.5115928,22.05 5.44448869,29.3102224 2.57586934,36.856005 C1.49451269,39.7002883 1.24106512,42.8235408 0.824307616,45.8101026 C0.69050264,46.7685133 0.740070966,48.2289827 0.35104812,49.0827978 C0.209866905,49.3924294 -0.113802464,49.5037592 0.0409510309,49.9255803 C0.134629267,50.1810514 0.318445143,50.3375149 0.594464008,50.3882366 C1.16110669,50.4925456 1.96231377,49.8754317 2.44811288,49.631853 C6.47760473,47.6110092 9.12508445,44.4863238 11.2848472,40.6632839 C12.6236346,38.2936927 13.9820428,35.833834 14.7773489,33.2324132 C15.263148,31.6432768 15.545953,29.9696044 15.7120659,28.3210062 C15.7774194,27.6717972 15.8407075,27.0071138 15.8368719,26.353893 C15.8330362,25.7058302 15.5314956,25.3632439 15.3147817,24.7991442 C18.3205991,23.661345 21.713374,23.3512836 24.7581379,24.5303479 C27.5742385,25.6208643 29.9135389,27.7282502 31.2234114,30.3758077 C31.5637511,31.0639893 31.8261977,31.7899972 32.0173898,32.5304766 C32.1424908,33.0154848 32.1485393,33.6447776 32.3804483,34.0832193 C32.9428128,35.1462256 34.1259615,34.4355488 34.0123674,33.446046 C33.6956317,30.6857258 32.1165265,27.9145162 30.0982399,25.9954024 C27.5526998,23.5750894 24.1022427,22.05 20.5198985,22.05" id="Fill-18"></path>
                        </g>
                        <rect id="Container" fill="#DDE3E9" x="30.24" y="0" width="100.17" height="190.26" rx="5.04"></rect>
                        <circle id="Touch" fill="#FFFFFF" cx="80.01" cy="168.84" r="9.45"></circle>
                        <g id="Camera" transform="translate(70.560000, 10.080000)" fill="#FFFFFF">
                            <circle id="Lens" cx="1.26" cy="1.26" r="1.26"></circle>
                            <rect id="Sensor" x="5.67" y="0" width="13.23" height="2.52" rx="1.26"></rect>
                        </g>
                        <g id="Rows" transform="translate(39.060000, 17.640000)">
                            <g id="Row">
                                <rect id="Container" fill="#FFFFFF" x="0" y="0" width="82.53" height="34.02" rx="2.52"></rect>
                                <g id="Text-Stuff" transform="translate(5.670000, 10.206000)" fill="#DDE3E9">
                                    <rect id="Label" x="0" y="0" width="45.99" height="5.103" rx="1.89"></rect>
                                    <rect id="Label" x="0" y="8.505" width="30.87" height="5.103" rx="1.89"></rect>
                                </g>
                                <g id="Check" transform="translate(69.300000, 12.600000)">
                                    <circle id="Background" fill="#DDE3E9" cx="4.41" cy="4.41" r="4.41"></circle>
                                    <circle id="Indicator" fill="#F2F2F2" cx="4.41" cy="4.41" r="1.89"></circle>
                                </g>
                            </g>
                            <g id="Row" transform="translate(0.000000, 43.000000)">
                                <rect id="Background" fill="#FFFFFF" x="0" y="0" width="82.53" height="26.46" rx="2.52"></rect>
                                <g id="Text" transform="translate(24.570000, 7.938000)" fill="#DDE3E9">
                                    <rect id="Name" x="0" y="0" width="45.99" height="3.969" rx="1.89"></rect>
                                    <rect id="Name" x="0" y="6.615" width="30.87" height="3.969" rx="1.89"></rect>
                                </g>
                                <circle id="Avatar" fill="#C5CFD6" cx="13.23" cy="13.23" r="7.56"></circle>
                            </g>
                            <g id="Row" transform="translate(0.000000, 78.000000)">
                                <rect id="Container" fill="#FFFFFF" x="0" y="0" width="82.53" height="26.46" rx="2.52"></rect>
                                <g id="Text-Stuff" transform="translate(5.670000, 7.938000)">
                                    <rect id="Label" fill="#DDE3E9" x="0" y="0" width="45.99" height="3.969" rx="1.89"></rect>
                                    <rect id="Label" fill="#AFB9C5" x="0" y="6.615" width="30.87" height="3.969" rx="1.89"></rect>
                                </g>
                                <g id="Check" transform="translate(69.300000, 8.820000)">
                                    <circle id="Background" fill="#DDE3E9" cx="4.41" cy="4.41" r="4.41"></circle>
                                    <circle id="Indicator" fill="#F2F2F2" cx="4.41" cy="4.41" r="1.89"></circle>
                                </g>
                            </g>
                            <g id="Row" transform="translate(0.000000, 113.000000)">
                                <rect id="Background" fill="#FFFFFF" x="0" y="0" width="82.53" height="26.46" rx="2.52"></rect>
                                <g id="Text" transform="translate(24.570000, 7.938000)" fill="#DDE3E9">
                                    <rect id="Name" x="0" y="0" width="45.99" height="3.969" rx="1.89"></rect>
                                    <rect id="Name" x="0" y="6.615" width="30.87" height="3.969" rx="1.89"></rect>
                                </g>
                                <circle id="Avatar" fill="#C5CFD6" cx="13.23" cy="13.23" r="7.56"></circle>
                            </g>
                        </g>
                    </g>
                    <g id="Web" stroke-width="1" transform="translate(243.442275, 111.362804)">
                        <rect id="Container" fill="#F2F2F2" x="0" y="0" width="211.05" height="217.98" rx="5.04"></rect>
                        <rect id="Background" fill="#FFFFFF" x="156.87" y="27.09" width="44.1" height="51.03" rx="5.04"></rect>
                        <g id="Profile-Info" transform="translate(163.170000, 36.540000)" fill="#DDE3E9">
                            <circle id="Avatar" cx="15.75" cy="10.08" r="10.08"></circle>
                            <rect id="Name" x="0" y="22.68" width="31.5" height="3.78" rx="1.89"></rect>
                            <rect id="Name" x="5.04" y="28.98" width="21.42" height="3.78" rx="1.89"></rect>
                        </g>
                        <path d="M5.04,0 L206.01,-8.8817842e-16 C208.793515,-1.39950186e-15 211.05,2.25648486 211.05,5.04 L211.05,17.01 L0,17.01 L-8.8817842e-16,5.04 C-1.22906071e-15,2.25648486 2.25648486,5.11323436e-16 5.04,0 Z" id="Header" fill="#C5CFD6"></path>
                        <g id="Buttons" transform="translate(5.670000, 6.300000)" fill="#F2F2F2">
                            <circle id="buttons" cx="2.52" cy="2.52" r="2.52"></circle>
                            <circle id="buttons" cx="10.08" cy="2.52" r="2.52"></circle>
                            <circle id="buttons" cx="17.64" cy="2.52" r="2.52"></circle>
                        </g>
                        <g id="Components" transform="translate(156.870000, 83.160000)">
                            <rect id="Background" fill="#FFFFFF" x="0" y="0" width="44.1" height="122.22" rx="5.04"></rect>
                            <g id="Rows" transform="translate(11.340000, 11.340000)">
                                <rect id="Data" fill="#DDE3E9" x="0" y="0" width="21" height="16" rx="2.52"></rect>
                                <rect id="Data" fill="#AFB9C5" x="0" y="24" width="21" height="16" rx="2.52"></rect>
                                <rect id="Data" fill="#DDE3E9" x="0" y="48" width="21" height="16" rx="2.52"></rect>
                                <rect id="Data" fill="#DDE3E9" x="0" y="96" width="21" height="16" rx="2.52"></rect>
                                <rect id="Data" fill="#C5CFD6" x="0" y="72" width="21" height="16" rx="2.52"></rect>
                            </g>
                        </g>
                        <g id="Rows" transform="translate(10.080000, 27.720000)">
                            <g id="Row">
                                <rect id="Container" fill="#FFFFFF" x="0" y="0" width="141.75" height="29.61" rx="2.52"></rect>
                                <g id="Text-Stuff" transform="translate(5.670000, 8.883000)" fill="#DDE3E9">
                                    <rect id="Label" x="0" y="0" width="105.21" height="4.4415" rx="1.89"></rect>
                                    <rect id="Label" x="0" y="7.4025" width="70.620411" height="4.4415" rx="1.89"></rect>
                                </g>
                                <g id="Check" transform="translate(122.191145, 10.395000)">
                                    <circle id="Background" fill="#DDE3E9" cx="4.41" cy="4.41" r="4.41"></circle>
                                    <circle id="Indicator" fill="#F2F2F2" cx="4.41" cy="4.41" r="1.89"></circle>
                                </g>
                            </g>
                            <g id="Row" transform="translate(0.000000, 38.000000)">
                                <rect id="Container" fill="#FFFFFF" x="0" y="0" width="141.75" height="24.57" rx="2.52"></rect>
                                <g id="Text-Stuff" transform="translate(5.670000, 7.371000)" fill="#DDE3E9">
                                    <rect id="Label" x="0" y="0" width="105.21" height="3.6855" rx="1.84275"></rect>
                                    <rect id="Label" x="0" y="6.1425" width="70.620411" height="3.6855" rx="1.84275"></rect>
                                </g>
                                <g id="Check" transform="translate(122.191145, 7.875000)">
                                    <circle id="Background" fill="#DDE3E9" cx="4.41" cy="4.41" r="4.41"></circle>
                                    <circle id="Indicator" fill="#F2F2F2" cx="4.41" cy="4.41" r="1.89"></circle>
                                </g>
                            </g>
                            <g id="Row" transform="translate(0.000000, 71.000000)">
                                <rect id="Container" fill="#FFFFFF" x="0" y="0" width="141.75" height="24.57" rx="2.52"></rect>
                                <g id="Text-Stuff" transform="translate(5.670000, 7.371000)" fill="#DDE3E9">
                                    <rect id="Label" x="0" y="0" width="105.21" height="3.6855" rx="1.84275"></rect>
                                    <rect id="Label" x="0" y="6.1425" width="70.620411" height="3.6855" rx="1.84275"></rect>
                                </g>
                                <g id="Check" transform="translate(122.191145, 7.875000)">
                                    <circle id="Background" fill="#DDE3E9" cx="4.41" cy="4.41" r="4.41"></circle>
                                    <circle id="Indicator" fill="#AFB9C5" cx="4.41" cy="4.41" r="1.89"></circle>
                                </g>
                            </g>
                            <g id="Row" transform="translate(0.000000, 170.000000)">
                                <rect id="Container" fill="#FFFFFF" x="0" y="0" width="141.75" height="24.57" rx="2.52"></rect>
                                <g id="Text-Stuff" transform="translate(5.670000, 7.371000)" fill="#DDE3E9">
                                    <rect id="Label" x="0" y="0" width="105.21" height="3.6855" rx="1.84275"></rect>
                                    <rect id="Label" x="0" y="6.1425" width="70.620411" height="3.6855" rx="1.84275"></rect>
                                </g>
                                <g id="Check" transform="translate(122.191145, 7.875000)">
                                    <circle id="Background" fill="#DDE3E9" cx="4.41" cy="4.41" r="4.41"></circle>
                                    <circle id="Indicator" fill="#F2F2F2" cx="4.41" cy="4.41" r="1.89"></circle>
                                </g>
                            </g>
                            <g id="Row" transform="translate(0.000000, 137.000000)">
                                <rect id="Container" fill="#FFFFFF" x="0" y="0" width="141.75" height="24.57" rx="2.52"></rect>
                                <g id="Text-Stuff" transform="translate(5.670000, 7.371000)" fill="#DDE3E9">
                                    <rect id="Label" x="0" y="0" width="105.21" height="3.6855" rx="1.84275"></rect>
                                    <rect id="Label" x="0" y="6.1425" width="70.620411" height="3.6855" rx="1.84275"></rect>
                                </g>
                                <g id="Check" transform="translate(122.191145, 7.875000)">
                                    <circle id="Background" fill="#DDE3E9" cx="4.41" cy="4.41" r="4.41"></circle>
                                    <circle id="Indicator" fill="#F2F2F2" cx="4.41" cy="4.41" r="1.89"></circle>
                                </g>
                            </g>
                            <g id="Row" transform="translate(0.000000, 104.000000)">
                                <rect id="Container" fill="#FFFFFF" x="0" y="0" width="141.75" height="24.57" rx="2.52"></rect>
                                <g id="Text-Stuff" transform="translate(5.670000, 7.371000)" fill="#DDE3E9">
                                    <rect id="Label" x="0" y="0" width="105.21" height="3.6855" rx="1.84275"></rect>
                                    <rect id="Label" x="0" y="6.1425" width="70.620411" height="3.6855" rx="1.84275"></rect>
                                </g>
                                <g id="Check" transform="translate(122.191145, 7.875000)">
                                    <circle id="Background" fill="#DDE3E9" cx="4.41" cy="4.41" r="4.41"></circle>
                                    <circle id="Indicator" fill="#F2F2F2" cx="4.41" cy="4.41" r="1.89"></circle>
                                </g>
                            </g>
                        </g>
                    </g>
                    <path d="M538.205576,229.568368 C535.720656,227.883341 532.416191,227.441776 529.442522,227.441776 C517.827929,227.441776 506.910751,231.751006 497.479594,238.171853 C492.311788,241.690078 487.688795,246.170398 483.607357,250.835196 C481.251545,253.527926 479.150925,256.440985 477.663741,259.680793 C476.660189,261.867516 475.971381,264.14591 475.504499,266.496007 C474.935494,269.360054 474.4835,272.282189 474.279021,275.193887 C474.198532,276.340459 473.532289,282.424572 475.438666,282.527589 C475.427732,282.677576 475.425173,282.820528 475.436805,282.948732 C471.297442,289.421087 468.739943,297.006431 466.368312,304.198088 C464.304912,310.456241 462.46623,316.767263 461.272621,323.241434 C459.701227,331.765047 458.669062,340.416864 458.178219,349.063008 C458.072839,350.921166 458.000492,352.780233 457.938148,354.640887 C457.885342,356.227889 457.831838,357.814892 457.779729,359.401894 C457.721572,361.180407 457.408457,363.228035 457.691331,364.996111 C457.93745,366.535916 459.270169,366.30288 459.329024,364.770563 C459.400208,362.920119 459.388576,361.066045 459.469531,359.21424 C459.577237,356.756588 459.6882,354.298935 459.808468,351.841963 C460.645692,334.774088 463.78662,317.957175 469.583215,301.83483 C471.929024,295.310513 474.617028,289.134274 478.071769,283.098946 C481.109178,277.79245 484.762815,272.655228 488.497406,267.870623 C492.127315,263.221029 495.901221,258.678989 500.348813,254.73962 C503.958019,251.542925 507.928029,248.75807 512.009001,246.166768 C517.192393,242.875678 522.365781,239.664461 527.980463,237.138055 C530.898999,235.824932 533.872668,234.649316 536.814002,233.38929 C537.343228,233.162608 537.910605,232.942733 538.419592,232.680199 C540.117536,231.804557 539.558533,230.485761 538.205576,229.568368" id="Fill-1" fill="#C1DEE2"></path>
                    <path d="M499.858906,291.062944 C495.148214,291.062944 490.956433,291.675043 486.616048,293.547107 C482.869423,295.162809 479.455025,297.30173 476.139987,299.630406 C471.477006,302.905501 467.804136,306.717307 465.233215,311.767875 C463.697272,314.785109 462.570593,319.054597 463.602069,322.345541 C464.817167,326.221598 468.153433,329.454287 472.547439,328.771298 C475.264557,328.349382 477.755376,326.550778 479.820517,324.857975 C482.290982,322.832779 484.26858,320.39766 485.901477,317.693115 C488.565194,313.281418 490.130464,308.29403 492.393233,303.68401 C493.466949,301.496045 494.504553,299.292445 495.790561,297.213063 C496.427218,296.183332 497.10502,295.163452 498.070839,294.398221 C498.587562,293.988941 500.76629,293.280465 499.933099,292.361245 C512.149078,292.521659 522.971152,301.903611 525.316212,313.516577 C525.534632,314.598995 525.705341,315.690193 525.885679,316.77925 C525.999485,317.466951 525.953525,320.002944 526.568297,320.442208 C527.92412,321.411329 527.354214,318.467342 527.295998,318.043498 C527.145643,316.948016 526.98522,315.853391 526.816919,314.760693 C525.901218,308.817248 523.255229,303.292078 518.842621,299.05343 C513.796638,294.206538 506.988414,291.062944 499.858906,291.062944" id="Fill-20" fill="#89C5CC" transform="translate(495.334120, 309.962944) scale(-1, 1) translate(-495.334120, -309.962944) "></path>
                    <g id="Plant" stroke-width="1" transform="translate(40.950000, 280.790000)">
                        <path d="M6.26084929,22.5139132 C18.0207389,42.2426646 31.717272,61.3455201 39.942526,82.9160129 C39.6110688,80.3735085 39.2596143,77.8336377 38.8662331,75.2973812 C36.7791875,61.8527003 34.1853294,48.5061247 31.459626,35.1759106 C30.0715358,28.388813 28.6034639,21.6263119 27.0977394,14.8643891 C26.2879139,11.232558 25.4880178,7.59851402 24.6615056,3.97014138 C24.4613063,3.09071959 24.2892941,1.55574046 24.0386543,0 C32.0322954,26.2311071 39.7408606,52.4819936 45.3794024,79.343706 C46.119104,82.8690191 46.7490155,86.3880686 47.2649991,89.9009953 C47.4415106,89.0996115 47.6151257,88.298092 47.8051548,87.4989044 C50.0866136,77.9183031 53.5088754,68.4139554 57.5836773,59.4559071 C59.5316742,55.1719534 61.7692234,50.9818161 64.4037352,47.0774615 C66.0465674,44.6437049 69.9208769,41.7506564 71.4195471,39.258135 C63.2233841,54.2908657 60.263902,73.0999291 55.5314342,89.4432003 C54.3763306,93.4314258 53.2140514,97.4131769 52.075223,101.401942 C59.2119846,87.0894708 70.284826,75.3300363 85.68,70.2340169 C67.0447354,82.5469738 55.867121,104.110039 48.3349442,126.163647 C48.3101249,126.42519 48.2806163,126.686737 48.2551076,126.948694 C50.4715455,122.742166 53.2634825,118.937374 57.0474408,116.272553 C65.1461532,110.567822 74.1302716,112.229707 81.9863141,117.123208 C75.820643,113.203883 64.6774781,116.772805 59.4896424,120.756317 C55.7757144,123.607893 52.6017423,127.433498 49.8454872,131.165748 C49.1850557,132.060396 48.2840312,133.104244 47.3321518,134.218025 C45.9975779,142.881028 43.8227444,151.484658 40.7436502,160.02 C41.2517813,157.570094 40.8843921,153.651882 41.0253039,151.82579 C41.0406418,151.628084 41.0530833,151.430242 41.0682836,151.233088 C40.6002422,153.101874 40.1480501,154.949419 39.7126682,156.767173 C40.5781454,153.298482 41.0485269,149.677459 41.4157213,146.01901 C41.5102936,144.446756 41.6025212,142.874504 41.6999899,141.302386 C41.6690984,138.318645 41.5462057,135.323113 41.3383499,132.322817 C40.6013304,129.406855 39.7761318,126.656391 39.0955949,124.369043 C36.6398588,116.11557 33.0398297,108.208533 28.6088327,100.832031 C24.5660322,94.1005886 19.7268017,88.003192 14.1402136,82.4887971 C11.1285376,79.5169648 7.97667232,76.6865417 4.86919642,73.816796 C3.7455154,72.7793512 1.7370483,70.2285274 0,68.8988364 C12.6507071,75.8732729 25.6717775,83.4186112 34.9004934,94.655992 C33.8185323,90.5011655 32.6433678,86.4051348 31.4002527,82.3911807 C25.0936228,62.0263112 17.1305415,40.9200914 6.26084929,22.5139132 Z" id="Fill-19" fill="#DDE3E9"></path>
                        <path d="M18.9,134.19 C18.9,156.806061 20.6909714,175.14 44.73,175.14 C68.7690286,175.14 70.56,156.806061 70.56,134.19" id="Base" fill="#C5CFD6"></path>
                    </g>
                    <g id="Image" stroke-width="1" transform="translate(68.583476, 45.159077)">
                        <path d="M30.24441,32.7513676 C30.24189,32.7576676 30.23937,32.7639676 30.23559,32.7715276 C30.23937,32.7652276 30.24441,32.7400276 30.24441,32.7513676" id="Fill-35" fill="#C5CFD6"></path>
                        <path d="M30.2385424,32.760942 C30.2385424,32.762202 30.2372824,32.764722 30.2372824,32.767242 C30.2372824,32.760942 30.2486224,32.742042 30.2385424,32.760942" id="Fill-37" fill="#C5CFD6"></path>
                        <path d="M30.2823001,32.6543501 C30.2734801,32.6795501 30.2621401,32.7034901 30.2520601,32.7286901 C30.2571001,32.7160901 30.2621401,32.7060101 30.2671801,32.6934101 C30.1361401,33.0210101 30.2193001,32.8080701 30.2823001,32.6543501" id="Fill-39" fill="#C5CFD6"></path>
                        <path d="M30.2540963,32.7302325 C30.2490563,32.7415725 30.2440163,32.7541725 30.2389763,32.7655125 C30.2024363,32.8360725 30.2540963,32.7302325 30.2540963,32.7302325" id="Fill-41" fill="#C5CFD6"></path>
                        <polygon id="Fill-43" fill="#C5CFD6" points="30.24 32.76063 30.24 32.76063 30.24 32.75937"></polygon>
                        <path d="M30.23937,32.76126 C30.23937,32.76 30.23937,32.76 30.24063,32.75874 C30.23937,32.76 30.23937,32.76 30.23937,32.76126" id="Fill-45" fill="#C5CFD6"></path>
                        <path d="M30.2333924,32.7703011 C30.2258324,32.7854211 30.2686724,32.7123411 30.2333924,32.7703011" id="Fill-47" fill="#C5CFD6"></path>
                        <path d="M30.23874,32.76126 L30.24126,32.75874 C30.24,32.76 30.24,32.76126 30.23874,32.76126" id="Fill-49" fill="#C5CFD6"></path>
                        <rect id="Photo-Background" fill="#DDE3E9" x="0" y="0" width="59.85" height="39.69" rx="2.52"></rect>
                        <g id="icons8-night_landscape" transform="translate(5.040000, 11.340000)">
                            <polygon id="Mountains" fill="#AFB9C5" points="17.64 0 0 28.35 35.28 28.35"></polygon>
                            <polygon id="Mountains" fill="#C5CFD6" points="34.965 7.56 19.53 28.35 50.4 28.35"></polygon>
                        </g>
                        <circle id="Sun" fill="#FFFFFF" cx="46.62" cy="13.23" r="5.67"></circle>
                    </g>
                    <g id="Image" stroke-width="1" transform="translate(479.381330, 371.661729) scale(-1, 1) translate(-479.381330, -371.661729) translate(434.651330, 342.051729)">
                        <path d="M44.73441,48.5013676 C44.73189,48.5076676 44.72937,48.5139676 44.72559,48.5215276 C44.72937,48.5152276 44.73441,48.4900276 44.73441,48.5013676" id="Fill-35" fill="#C5CFD6"></path>
                        <path d="M44.7285424,48.510942 C44.7285424,48.512202 44.7272824,48.514722 44.7272824,48.517242 C44.7272824,48.510942 44.7386224,48.492042 44.7285424,48.510942" id="Fill-37" fill="#C5CFD6"></path>
                        <path d="M44.7723001,48.4043501 C44.7634801,48.4295501 44.7521401,48.4534901 44.7420601,48.4786901 C44.7471001,48.4660901 44.7521401,48.4560101 44.7571801,48.4434101 C44.6261401,48.7710101 44.7093001,48.5580701 44.7723001,48.4043501" id="Fill-39" fill="#C5CFD6"></path>
                        <path d="M44.7440963,48.4802325 C44.7390563,48.4915725 44.7340163,48.5041725 44.7289763,48.5155125 C44.6924363,48.5860725 44.7440963,48.4802325 44.7440963,48.4802325" id="Fill-41" fill="#C5CFD6"></path>
                        <polygon id="Fill-43" fill="#C5CFD6" points="44.73 48.51063 44.73 48.51063 44.73 48.50937"></polygon>
                        <path d="M44.72937,48.51126 C44.72937,48.51 44.72937,48.51 44.73063,48.50874 C44.72937,48.51 44.72937,48.51 44.72937,48.51126" id="Fill-45" fill="#C5CFD6"></path>
                        <path d="M44.7233924,48.5203011 C44.7158324,48.5354211 44.7586724,48.4623411 44.7233924,48.5203011" id="Fill-47" fill="#C5CFD6"></path>
                        <path d="M44.72874,48.51126 L44.73126,48.50874 C44.73,48.51 44.73,48.51126 44.72874,48.51126" id="Fill-49" fill="#C5CFD6"></path>
                        <rect id="Photo-Background" fill="#DDE3E9" x="0" y="0" width="89.46" height="59.22" rx="2.52"></rect>
                        <g id="icons8-night_landscape" transform="translate(6.930000, 17.010000)">
                            <polygon id="Mountains" fill="#AFB9C5" points="26.28725 0 0.4226 42.21 52.1519 42.21"></polygon>
                            <polygon id="Mountains" fill="#C5CFD6" points="52.95515 11.30625 30.0893 42.21 75.821 42.21"></polygon>
                        </g>
                        <circle id="Sun" fill="#FFFFFF" cx="69.615" cy="19.845" r="8.505"></circle>
                    </g>
                </g>
                <g id="humaaan-10" transform="translate(304.250000, 302.950000) scale(-1, 1) translate(-304.250000, -302.950000) translate(172.750000, 114.450000)">
                    <g id="Head/Front/Short-1" transform="translate(70.929178, 0.000000)">
                        <g id="Head" stroke-width="1" transform="translate(47.305742, 27.157000)" fill="#B28B67">
                            <path d="M7.23801845,30.2144636 C3.20134105,25.4762234 0.469233358,19.6694447 0.925770159,13.1627823 C2.2411798,-5.58472367 28.3383564,-1.46051122 33.4147975,8.00161989 C38.4912386,17.463751 37.8880255,41.4652312 31.3271776,43.156378 C28.7107205,43.830805 23.136889,42.178729 17.4640289,38.7594393 L21.0247742,63.9503549 L0,63.9503549 L7.23801845,30.2144636 Z"></path>
                        </g>
                        <path d="M71.4480433,36.530904 C68.5949199,38.12687 66.5644433,41.1174149 64.1202416,45.0401211 C63.5249453,44.8061416 62.8766238,44.6776452 62.1982904,44.6776452 C59.2953748,44.6776452 56.9420968,47.0309232 56.9420968,49.9338387 C56.9420968,51.4075162 57.5485668,52.739545 58.5255383,53.6939566 C57.3093263,55.4106314 55.9463017,57.2039281 54.384421,59.0543772 C48.5558734,55.5574858 44.2207413,45.3656852 49.785886,35.5268294 C54.5740899,15.8188881 81.7060862,28.0513927 86.9260568,24.7275676 C88.0670426,31.8792391 84.3868271,37.6457861 71.4480433,36.530904 Z" id="Hair" fill="#333333"></path>
                    </g>
                    <g id="Bottom/Standing/Baggy-Pants" transform="translate(0.000000, 167.160000)">
                        <polygon id="Leg" fill="#997659" points="117.388323 0 160.385422 108.82678 189.223755 200.830649 200.611387 200.830649 156.523914 4.45933621e-13"></polygon>
                        <path d="M108.73017,0 C108.272312,38.2424776 101.595067,89.7297666 100.528268,92.113608 C99.8170685,93.7028356 75.2653253,113.912634 26.8730382,152.743003 L34.7163448,161.136267 C91.8147606,127.844097 121.685085,108.977834 124.327319,104.537479 C128.29067,97.8769468 141.193974,36.5858552 151.553581,0 L108.73017,0 Z" id="Leg" fill="#B28B67"></path>
                        <g id="Accessories/Shoe/Flat-Sneaker" transform="translate(45.115661, 165.570097) rotate(50.000000) translate(-45.115661, -165.570097) translate(18.396677, 148.049452)" fill="#E4E4E4">
                            <path d="M2.34612985,22.2529051 C1.36606479,24.8691637 0.876032259,26.8267298 0.876032259,28.1256033 C0.876032259,29.7053402 1.13920479,32.0105692 1.66554986,35.0412903 C3.49815552,35.0412903 19.9680912,35.0412903 51.0753568,35.0412903 C52.3593425,30.7964824 51.6181515,28.5048472 48.8517837,28.1663847 C46.0854159,27.8279222 43.7873472,27.5223176 41.9575776,27.2495711 L18.9923729,17.0115683 C18.5504767,16.8145688 18.0325494,17.0130968 17.8355499,17.454993 C17.8321797,17.4625526 17.8289169,17.4701596 17.8257624,17.4778117 L16.3495767,21.0586723 C13.7886437,22.2535427 11.7076197,22.850978 10.1065048,22.850978 C8.805637,22.850978 7.0091275,22.3255993 4.71697635,21.2748419 L4.71698114,21.2748315 C3.83735658,20.871598 2.79739469,21.2577893 2.39416125,22.1374139 C2.37678129,22.175327 2.36076062,22.2138486 2.34612985,22.2529051 Z" id="shoe"></path>
                        </g>
                        <g id="Accessories/Shoe/Flat-Sneaker" transform="translate(182.214710, 174.330419)" fill="#E4E4E4">
                            <path d="M2.34612985,22.2529051 C1.36606479,24.8691637 0.876032259,26.8267298 0.876032259,28.1256033 C0.876032259,29.7053402 1.13920479,32.0105692 1.66554986,35.0412903 C3.49815552,35.0412903 19.9680912,35.0412903 51.0753568,35.0412903 C52.3593425,30.7964824 51.6181515,28.5048472 48.8517837,28.1663847 C46.0854159,27.8279222 43.7873472,27.5223176 41.9575776,27.2495711 L18.9923729,17.0115683 C18.5504767,16.8145688 18.0325494,17.0130968 17.8355499,17.454993 C17.8321797,17.4625526 17.8289169,17.4701596 17.8257624,17.4778117 L16.3495767,21.0586723 C13.7886437,22.2535427 11.7076197,22.850978 10.1065048,22.850978 C8.805637,22.850978 7.0091275,22.3255993 4.71697635,21.2748419 L4.71698114,21.2748315 C3.83735658,20.871598 2.79739469,21.2577893 2.39416125,22.1374139 C2.37678129,22.175327 2.36076062,22.2138486 2.34612985,22.2529051 Z" id="shoe"></path>
                        </g>
                        <polygon id="Pant" fill="#333333" points="146.297387 191.354257 200.440092 185.478216 160.313903 2.84217094e-14 111.820326 2.84217094e-14"></polygon>
                        <path d="M38.0723252,139.201946 L73.5867097,181.238775 C110.993246,140.384135 132.801354,113.726475 139.011034,101.265796 C145.220715,88.8051157 150.802901,55.0498505 155.757594,0 L101.162581,0 C98.4560762,48.4304572 96.6317037,73.7725388 95.6894633,76.026245 C94.747223,78.2799512 75.5415103,99.3385181 38.0723252,139.201946 Z" id="Pant" fill="#444444"></path>
                    </g>
                    <g id="Body/Turtle-Neck" transform="translate(15.120000, 73.080000)">
                        <path d="M181.003926,83.467694 L206.706376,108.41495 C214.184841,111.588815 220.312378,115.093403 225.088987,118.928714 C226.163175,120.217892 227.332603,122.688025 222.278603,121.582676 C217.224603,120.477327 211.858589,119.540816 210.908699,121.17612 C209.958809,122.811424 212.757738,125.317291 211.002223,127.457483 C209.83188,128.884278 205.895924,124.345923 199.194356,113.842419 L172.467207,98.1642699 L181.003926,83.467694 Z M55.3190582,60.8895649 L75.1869806,60.9637518 C60.0549381,109.742261 52.0223645,135.281915 51.08926,137.582714 C48.9897748,142.759512 53.4325678,150.643686 55.3324825,154.880582 C49.1445238,157.635537 49.8038574,147.432816 41.9979141,151.046092 C34.873011,154.344123 29.453115,160.319935 21.221319,155.266295 C20.209268,154.64498 19.1002251,152.305616 21.779813,150.477526 C28.4556439,145.923089 38.0759207,137.952003 39.3757716,135.328258 C41.1483505,131.750314 46.4627794,106.937416 55.3190582,60.8895649 Z" id="Skin" fill="#B28B67"></path>
                        <path d="M111.413169,8.7885196 L119.112319,6.77090071 C135.213183,48.9969399 201.055993,72.9795807 206.355719,88.8276618 C208.299269,94.639572 204.267652,98.0162141 206.644012,99.6303548 L197.132294,107.918474 C195.237224,106.071927 191.885613,110.046203 183.995381,108.161616 C176.105149,106.277029 115.899122,60.0631963 111.413169,8.7885196 Z" id="Clothes-Back" fill="#14257E" transform="translate(159.158789, 57.726829) rotate(5.000000) translate(-159.158789, -57.726829) "></path>
                        <path d="M129.058127,10.5663789 C128.143062,68.1371997 161.590879,82.8180497 154.141962,105.907938 C147.991699,124.972309 89.1235361,145.466427 78.9367639,126.778844 C74.8132885,119.214349 72.9424508,110.065628 72.7301811,100.11899 C70.1266555,107.760623 68.0675559,114.339154 66.5528802,119.854588 C63.9398529,129.369483 53.8097037,130.881918 53.8097037,134.547398 L40.4633753,130.881918 C41.3686253,125.902213 35.0768435,123.477393 36.7638343,112.352296 C44.3225763,62.5051108 64.6316101,26.3725125 97.6909355,3.95450085 L98.0424753,-1.0180231 C98.1780872,-2.94757706 99.8515412,-4.40228581 101.78119,-4.26803252 L101.781361,-4.27049464 L126.468988,-2.5553514 C128.399598,-2.42103125 129.855779,-0.747074552 129.721459,1.18353552 C129.721402,1.18435594 129.721344,1.18517634 129.721287,1.18599672 L129.058127,10.5663789 Z" id="Clothes-Front" fill="#1E2AA4"></path>
                    </g>
                </g>
                <g id="Chat" transform="translate(321.300000, 39.900000)" fill="#2FC4D9" fill-rule="nonzero">
                    <path d="M70.2851521,0 L36.8154352,0 C17.7855854,0.00153065463 1.89274623,14.6273991 0.155572545,33.7373533 C-1.58160114,52.8473074 11.4094146,70.1432393 30.1218265,73.6337167 L30.1218265,87.7495879 C30.1217278,90.4799889 31.7528304,92.9415364 34.2544156,93.9862062 C36.7560009,95.0308759 39.6353132,94.4528916 41.54949,92.5218155 L60.2430657,74.2496513 L70.2851521,74.2496513 C90.6174312,74.2496513 107.1,57.6283007 107.1,37.1248257 C107.1,16.6213506 90.6174312,1.25547575e-15 70.2851521,0 Z" id="Icons"></path>
                </g>
                <path d="M371,82.5027504 L370.02,64.3995063 L370.02,59.85 L377.673333,59.85 L377.673333,64.3995063 L376.46,82.5027504 L371,82.5027504 Z M373.8,93.45 C371.046667,93.45 369.6,91.8387165 369.6,89.1848378 C369.6,86.5783498 371.046667,84.9670663 373.8,84.9670663 C376.46,84.9670663 378,86.5783498 378,89.1848378 C378,91.8387165 376.46,93.45 373.8,93.45 Z" id="!" fill="#FFFFFF" fill-rule="nonzero"></path>
            </g>
        </g>
    </g>
</svg>