<?xml version="1.0" encoding="UTF-8"?>
<svg width="66px" height="64px" viewBox="0 0 66 64" version="1.1" xmlns="http://www.w3.org/2000/svg" xmlns:xlink="http://www.w3.org/1999/xlink">
    <!-- Generator: Sketch 53.2 (72643) - https://sketchapp.com -->
    <title>Firefox</title>
    <desc>Created with Sketch.</desc>
    <defs>
        <radialGradient cx="50.6984565%" cy="5.24007307%" fx="50.6984565%" fy="5.24007307%" r="89.5145296%" gradientTransform="translate(0.506985,0.052401),scale(1.000000,0.999328),translate(-0.506985,-0.052401)" id="radialGradient-1">
            <stop stop-color="#67C5D5" offset="0%"></stop>
            <stop stop-color="#66C2D3" offset="16%"></stop>
            <stop stop-color="#62B9CE" offset="28%"></stop>
            <stop stop-color="#5CA8C6" offset="38.5%"></stop>
            <stop stop-color="#5392BA" offset="48.3%"></stop>
            <stop stop-color="#4874AA" offset="57.6%"></stop>
            <stop stop-color="#3A5097" offset="66.5%"></stop>
            <stop stop-color="#2A2781" offset="74.9%"></stop>
            <stop stop-color="#1B006D" offset="81.5%"></stop>
            <stop stop-color="#596AAD" offset="100%"></stop>
        </radialGradient>
        <radialGradient cx="89.1929305%" cy="-256.27444%" fx="89.1929305%" fy="-256.27444%" r="232.834655%" gradientTransform="translate(0.891929,-2.562744),scale(0.992621,1.000000),translate(-0.891929,2.562744)" id="radialGradient-2">
            <stop stop-color="#0F80BC" offset="0%"></stop>
            <stop stop-color="#0A5F9E" offset="33.8%"></stop>
            <stop stop-color="#00145A" offset="100%"></stop>
        </radialGradient>
        <radialGradient cx="-923.932935%" cy="-1093.85245%" fx="-923.932935%" fy="-1093.85245%" r="1940.53156%" gradientTransform="translate(-9.239329,-10.938524),scale(0.656457,1.000000),translate(9.239329,10.938524)" id="radialGradient-3">
            <stop stop-color="#0F80BC" offset="0%"></stop>
            <stop stop-color="#0A5F9E" offset="33.8%"></stop>
            <stop stop-color="#00145A" offset="100%"></stop>
        </radialGradient>
        <radialGradient cx="-815.141152%" cy="-856.278035%" fx="-815.141152%" fy="-856.278035%" r="1420.55934%" gradientTransform="translate(-8.151412,-8.562780),scale(0.868550,1.000000),translate(8.151412,8.562780)" id="radialGradient-4">
            <stop stop-color="#0F80BC" offset="0%"></stop>
            <stop stop-color="#0A5F9E" offset="33.8%"></stop>
            <stop stop-color="#00145A" offset="100%"></stop>
        </radialGradient>
        <radialGradient cx="1.55251873%" cy="-32.1701753%" fx="1.55251873%" fy="-32.1701753%" r="157.887076%" gradientTransform="translate(0.015525,-0.321702),scale(1.000000,0.660432),translate(-0.015525,0.321702)" id="radialGradient-5">
            <stop stop-color="#0F80BC" offset="0%"></stop>
            <stop stop-color="#0B629B" offset="26.4%"></stop>
            <stop stop-color="#031747" offset="84.4%"></stop>
            <stop stop-color="#00022F" offset="100%"></stop>
        </radialGradient>
        <radialGradient cx="51.4875114%" cy="-47.2934013%" fx="51.4875114%" fy="-47.2934013%" r="607.124517%" gradientTransform="translate(0.514875,-0.472934),scale(0.963697,1.000000),translate(-0.514875,0.472934)" id="radialGradient-6">
            <stop stop-color="#0F80BC" offset="0%"></stop>
            <stop stop-color="#0A5F9E" offset="33.8%"></stop>
            <stop stop-color="#00145A" offset="100%"></stop>
        </radialGradient>
        <radialGradient cx="1.64510125%" cy="-1575.06606%" fx="1.64510125%" fy="-1575.06606%" r="1420.23193%" gradientTransform="translate(0.016451,-15.750661),scale(0.868903,1.000000),translate(-0.016451,15.750661)" id="radialGradient-7">
            <stop stop-color="#0F80BC" offset="0%"></stop>
            <stop stop-color="#0A5F9E" offset="33.8%"></stop>
            <stop stop-color="#00145A" offset="100%"></stop>
        </radialGradient>
        <ellipse id="path-8" cx="31.3776" cy="31.3546667" rx="30.9253333" ry="30.9461333"></ellipse>
        <linearGradient x1="29.7183206%" y1="49.3526766%" x2="72.9109935%" y2="52.3547142%" id="linearGradient-10">
            <stop stop-color="#0F80BC" offset="0%"></stop>
            <stop stop-color="#0A5F9E" offset="33.8%"></stop>
            <stop stop-color="#00145A" offset="100%"></stop>
        </linearGradient>
        <ellipse id="path-11" cx="31.3776" cy="31.3546667" rx="30.9253333" ry="30.9461333"></ellipse>
        <linearGradient x1="41.7533807%" y1="55.9459272%" x2="20.4813202%" y2="76.4228417%" id="linearGradient-13">
            <stop stop-color="#0F80BC" offset="0%"></stop>
            <stop stop-color="#0A5F9E" offset="33.8%"></stop>
            <stop stop-color="#00145A" offset="100%"></stop>
        </linearGradient>
        <linearGradient x1="50%" y1="78.2324553%" x2="50%" y2="21.5212146%" id="linearGradient-14">
            <stop stop-color="#000000" stop-opacity="0" offset="1.4%"></stop>
            <stop stop-color="#C4E0E3" stop-opacity="0.2" offset="65%"></stop>
            <stop stop-color="#C4E0E3" offset="82.2%"></stop>
            <stop stop-color="#CDE5E8" offset="85%"></stop>
            <stop stop-color="#E8F4F7" offset="94.4%"></stop>
            <stop stop-color="#F2FAFC" offset="100%"></stop>
        </linearGradient>
        <linearGradient x1="49.3624685%" y1="43.8433957%" x2="60.9707122%" y2="37.654299%" id="linearGradient-15">
            <stop stop-color="#DF731B" offset="0%"></stop>
            <stop stop-color="#DF731B" offset="54.5%"></stop>
            <stop stop-color="#EC8811" offset="70.1%"></stop>
            <stop stop-color="#F4950B" offset="85.9%"></stop>
            <stop stop-color="#F79A09" offset="100%"></stop>
        </linearGradient>
        <linearGradient x1="9.22970797%" y1="48.0456742%" x2="57.2659407%" y2="51.6336864%" id="linearGradient-16">
            <stop stop-color="#941403" offset="1.1%"></stop>
            <stop stop-color="#E85C0A" offset="89.7%"></stop>
        </linearGradient>
        <linearGradient x1="-227.913115%" y1="28.9379474%" x2="114.940077%" y2="56.1334314%" id="linearGradient-17">
            <stop stop-color="#941403" offset="1.1%"></stop>
            <stop stop-color="#A32104" offset="13.6%"></stop>
            <stop stop-color="#C84107" offset="49.8%"></stop>
            <stop stop-color="#DF5509" offset="78.9%"></stop>
            <stop stop-color="#E85C0A" offset="97.2%"></stop>
        </linearGradient>
        <linearGradient x1="16.4807081%" y1="58.8989837%" x2="35.8848096%" y2="53.3665496%" id="linearGradient-18">
            <stop stop-color="#F2C8A9" offset="0%"></stop>
            <stop stop-color="#FFFFCC" offset="100%"></stop>
        </linearGradient>
        <linearGradient x1="36.4540054%" y1="50.1295122%" x2="91.7661359%" y2="51.8899509%" id="linearGradient-19">
            <stop stop-color="#B30000" offset="0%"></stop>
            <stop stop-color="#DF731B" offset="100%"></stop>
        </linearGradient>
        <linearGradient x1="31.0070554%" y1="47.4611309%" x2="121.871672%" y2="57.1790088%" id="linearGradient-20">
            <stop stop-color="#941403" offset="0%"></stop>
            <stop stop-color="#DF731B" offset="100%"></stop>
        </linearGradient>
        <linearGradient x1="27.1477969%" y1="47.8624439%" x2="72.5304652%" y2="51.2853581%" id="linearGradient-21">
            <stop stop-color="#B30000" offset="5.6%"></stop>
            <stop stop-color="#DE5C01" offset="100%"></stop>
        </linearGradient>
        <linearGradient x1="49.0015493%" y1="35.8221131%" x2="60.7716409%" y2="197.472965%" id="linearGradient-22">
            <stop stop-color="#DE7210" offset="5.6%"></stop>
            <stop stop-color="#F6C08F" offset="100%"></stop>
        </linearGradient>
        <linearGradient x1="50.035927%" y1="37.3142796%" x2="48.0887949%" y2="171.5893%" id="linearGradient-23">
            <stop stop-color="#DE7210" offset="5.6%"></stop>
            <stop stop-color="#F6C08F" offset="100%"></stop>
        </linearGradient>
        <linearGradient x1="52.6487144%" y1="88.0478821%" x2="36.1357126%" y2="23.8581952%" id="linearGradient-24">
            <stop stop-color="#941403" offset="1.1%"></stop>
            <stop stop-color="#E85C0A" offset="47.2%"></stop>
            <stop stop-color="#F9BD5F" offset="100%"></stop>
        </linearGradient>
        <linearGradient x1="42.2002366%" y1="65.7553378%" x2="75.9368423%" y2="2.05721809%" id="linearGradient-25">
            <stop stop-color="#DE7210" offset="19.7%"></stop>
            <stop stop-color="#F9BD5F" offset="84.3%"></stop>
            <stop stop-color="#FFFCCF" offset="100%"></stop>
        </linearGradient>
        <linearGradient x1="28.6673406%" y1="11.2019936%" x2="63.020262%" y2="86.9345535%" id="linearGradient-26">
            <stop stop-color="#941403" offset="1.7%"></stop>
            <stop stop-color="#E35100" offset="50%"></stop>
            <stop stop-color="#DF731B" offset="100%"></stop>
        </linearGradient>
        <linearGradient x1="48.3391671%" y1="44.6350975%" x2="71.9122794%" y2="59.8308403%" id="linearGradient-27">
            <stop stop-color="#EEA272" offset="0%"></stop>
            <stop stop-color="#EFA777" offset="18.6%"></stop>
            <stop stop-color="#F2B585" offset="40.6%"></stop>
            <stop stop-color="#F6CD9C" offset="64.3%"></stop>
            <stop stop-color="#FCEEBB" offset="89%"></stop>
            <stop stop-color="#FFFFCC" offset="100%"></stop>
        </linearGradient>
        <linearGradient x1="47.1416526%" y1="54.0021341%" x2="98.683303%" y2="87.7111017%" id="linearGradient-28">
            <stop stop-color="#DF731B" offset="19.7%"></stop>
            <stop stop-color="#F9BD5F" offset="84.3%"></stop>
            <stop stop-color="#FFFCCF" offset="100%"></stop>
        </linearGradient>
        <linearGradient x1="54.0039617%" y1="4.4984377%" x2="31.1391607%" y2="179.109706%" id="linearGradient-29">
            <stop stop-color="#DE7210" offset="5.6%"></stop>
            <stop stop-color="#F6C08F" offset="100%"></stop>
        </linearGradient>
        <linearGradient x1="58.9918391%" y1="21.7684909%" x2="7.31915002%" y2="175.84591%" id="linearGradient-30">
            <stop stop-color="#DE7210" offset="5.6%"></stop>
            <stop stop-color="#F2C06E" offset="100%"></stop>
        </linearGradient>
        <linearGradient x1="122.837864%" y1="46.8247836%" x2="17.3297159%" y2="53.7343449%" id="linearGradient-31">
            <stop stop-color="#FFFAEE" offset="0.5%"></stop>
            <stop stop-color="#F5F89B" offset="27.6%"></stop>
            <stop stop-color="#F3ED91" offset="31%"></stop>
            <stop stop-color="#ECC267" offset="46.7%"></stop>
            <stop stop-color="#E6A046" offset="61.8%"></stop>
            <stop stop-color="#E2872E" offset="76.1%"></stop>
            <stop stop-color="#E07820" offset="89.2%"></stop>
            <stop stop-color="#DF731B" offset="100%"></stop>
        </linearGradient>
        <linearGradient x1="50.9613887%" y1="3.71739845%" x2="42.5410554%" y2="173.837913%" id="linearGradient-32">
            <stop stop-color="#DE7210" offset="5.6%"></stop>
            <stop stop-color="#F2C06E" offset="100%"></stop>
        </linearGradient>
        <linearGradient x1="59.3465048%" y1="-1.48110733%" x2="15.0880103%" y2="177.142718%" id="linearGradient-33">
            <stop stop-color="#DE7210" offset="5.6%"></stop>
            <stop stop-color="#F2C06E" offset="100%"></stop>
        </linearGradient>
        <linearGradient x1="49.7693577%" y1="40.3915805%" x2="51.8190857%" y2="177.403328%" id="linearGradient-34">
            <stop stop-color="#DE7210" offset="5.6%"></stop>
            <stop stop-color="#F2C072" offset="100%"></stop>
        </linearGradient>
        <linearGradient x1="49.7664668%" y1="40.3867417%" x2="51.8161256%" y2="177.385379%" id="linearGradient-35">
            <stop stop-color="#DE7210" offset="5.6%"></stop>
            <stop stop-color="#F2C072" offset="100%"></stop>
        </linearGradient>
        <linearGradient x1="47.4278988%" y1="39.3228707%" x2="-1.87428377%" y2="131.127339%" id="linearGradient-36">
            <stop stop-color="#DE7210" offset="5.6%"></stop>
            <stop stop-color="#EED8A5" offset="100%"></stop>
        </linearGradient>
        <linearGradient x1="47.4281359%" y1="39.3323006%" x2="-1.86577362%" y2="131.123126%" id="linearGradient-37">
            <stop stop-color="#DE7210" offset="5.6%"></stop>
            <stop stop-color="#EED8A5" offset="100%"></stop>
        </linearGradient>
        <linearGradient x1="44.2701521%" y1="52.190053%" x2="17.2599022%" y2="119.087046%" id="linearGradient-38">
            <stop stop-color="#DE7210" offset="5.6%"></stop>
            <stop stop-color="#F2C072" offset="100%"></stop>
        </linearGradient>
        <linearGradient x1="49.5782662%" y1="32.2959312%" x2="-53.1190163%" y2="185.957831%" id="linearGradient-39">
            <stop stop-color="#DE7210" offset="5.6%"></stop>
            <stop stop-color="#F2C072" offset="100%"></stop>
        </linearGradient>
        <linearGradient x1="49.5760187%" y1="32.3100674%" x2="-53.137245%" y2="186.008718%" id="linearGradient-40">
            <stop stop-color="#DE7210" offset="5.6%"></stop>
            <stop stop-color="#F2C072" offset="100%"></stop>
        </linearGradient>
        <linearGradient x1="52.3205544%" y1="14.2049162%" x2="71.9908246%" y2="51.2290624%" id="linearGradient-41">
            <stop stop-color="#8B8B89" offset="0%"></stop>
            <stop stop-color="#120500" offset="100%"></stop>
        </linearGradient>
        <linearGradient x1="50.0000461%" y1="37.7891515%" x2="50.0000461%" y2="5.77034009%" id="linearGradient-42">
            <stop stop-color="#DE7210" offset="5.6%"></stop>
            <stop stop-color="#F6C08F" offset="100%"></stop>
        </linearGradient>
        <linearGradient x1="-14.5221073%" y1="107.956466%" x2="102.272258%" y2="-24.5996775%" id="linearGradient-43">
            <stop stop-color="#DE7210" offset="5.6%"></stop>
            <stop stop-color="#F6C08F" offset="100%"></stop>
        </linearGradient>
        <linearGradient x1="47.4193793%" y1="39.3239534%" x2="-1.88280324%" y2="131.122466%" id="linearGradient-44">
            <stop stop-color="#DE7210" offset="5.6%"></stop>
            <stop stop-color="#EED8A5" offset="100%"></stop>
        </linearGradient>
        <linearGradient x1="-24.6935421%" y1="94.2322227%" x2="104.999043%" y2="-19.6501642%" id="linearGradient-45">
            <stop stop-color="#DE7210" offset="5.6%"></stop>
            <stop stop-color="#F6C08F" offset="100%"></stop>
        </linearGradient>
        <linearGradient x1="-41.2885512%" y1="44.0692691%" x2="103.002331%" y2="53.5736121%" id="linearGradient-46">
            <stop stop-color="#DE7210" offset="5.6%"></stop>
            <stop stop-color="#F6C08F" offset="100%"></stop>
        </linearGradient>
        <linearGradient x1="-38.7039287%" y1="47.141545%" x2="108.092345%" y2="51.6446775%" id="linearGradient-47">
            <stop stop-color="#DE7210" offset="5.6%"></stop>
            <stop stop-color="#F6C08F" offset="100%"></stop>
        </linearGradient>
        <linearGradient x1="-42.5037483%" y1="43.8400715%" x2="102.969136%" y2="54.3433591%" id="linearGradient-48">
            <stop stop-color="#DE7210" offset="5.6%"></stop>
            <stop stop-color="#F6C08F" offset="100%"></stop>
        </linearGradient>
        <linearGradient x1="55.7323982%" y1="49.8847635%" x2="-87.7394119%" y2="46.016363%" id="linearGradient-49">
            <stop stop-color="#DE7210" offset="5.6%"></stop>
            <stop stop-color="#F6C08F" offset="100%"></stop>
        </linearGradient>
        <linearGradient x1="-20.7935499%" y1="93.3396648%" x2="105.658959%" y2="-11.7305159%" id="linearGradient-50">
            <stop stop-color="#DE7210" offset="5.6%"></stop>
            <stop stop-color="#F6C08F" offset="100%"></stop>
        </linearGradient>
        <linearGradient x1="33.3578831%" y1="107.812118%" x2="63.6107342%" y2="35.5782429%" id="linearGradient-51">
            <stop stop-color="#DE5C01" offset="0%"></stop>
            <stop stop-color="#FEFD00" offset="73.6%"></stop>
            <stop stop-color="#FEFE26" offset="77.8%"></stop>
            <stop stop-color="#FFFE54" offset="83.7%"></stop>
            <stop stop-color="#FFFF76" offset="88.9%"></stop>
            <stop stop-color="#FFFF8B" offset="93.2%"></stop>
            <stop stop-color="#FFFF92" offset="96.1%"></stop>
        </linearGradient>
        <linearGradient x1="79.6873806%" y1="53.1818774%" x2="24.8188959%" y2="37.9650153%" id="linearGradient-52">
            <stop stop-color="#F79A09" offset="0%"></stop>
            <stop stop-color="#FEFD00" offset="73.6%"></stop>
            <stop stop-color="#FEFE26" offset="77.8%"></stop>
            <stop stop-color="#FFFE54" offset="83.7%"></stop>
            <stop stop-color="#FFFF76" offset="88.9%"></stop>
            <stop stop-color="#FFFF8B" offset="93.2%"></stop>
            <stop stop-color="#FFFF92" offset="96.1%"></stop>
        </linearGradient>
        <linearGradient x1="121.713799%" y1="91.9360179%" x2="19.0066041%" y2="-2.67562784%" id="linearGradient-53">
            <stop stop-color="#DE5C01" offset="0%"></stop>
            <stop stop-color="#FEFD00" offset="73.6%"></stop>
            <stop stop-color="#FEFE26" offset="77.8%"></stop>
            <stop stop-color="#FFFE54" offset="83.7%"></stop>
            <stop stop-color="#FFFF76" offset="88.9%"></stop>
            <stop stop-color="#FFFF8B" offset="93.2%"></stop>
            <stop stop-color="#FFFF92" offset="96.1%"></stop>
        </linearGradient>
        <linearGradient x1="53.5524008%" y1="52.2167995%" x2="38.1033712%" y2="26.6471418%" id="linearGradient-54">
            <stop stop-color="#F79A09" offset="0%"></stop>
            <stop stop-color="#FEFD00" offset="73.6%"></stop>
            <stop stop-color="#FEFE26" offset="77.8%"></stop>
            <stop stop-color="#FFFE54" offset="83.7%"></stop>
            <stop stop-color="#FFFF76" offset="88.9%"></stop>
            <stop stop-color="#FFFF8B" offset="93.2%"></stop>
            <stop stop-color="#FFFF92" offset="96.1%"></stop>
        </linearGradient>
        <linearGradient x1="48.4633913%" y1="69.7176553%" x2="50.8719536%" y2="26.2149596%" id="linearGradient-55">
            <stop stop-color="#F79A09" offset="0%"></stop>
            <stop stop-color="#FEFD00" offset="73.6%"></stop>
            <stop stop-color="#FEFE26" offset="77.8%"></stop>
            <stop stop-color="#FFFE54" offset="83.7%"></stop>
            <stop stop-color="#FFFF76" offset="88.9%"></stop>
            <stop stop-color="#FFFF8B" offset="93.2%"></stop>
            <stop stop-color="#FFFF92" offset="96.1%"></stop>
        </linearGradient>
        <linearGradient x1="50.3423184%" y1="77.853295%" x2="49.6703797%" y2="19.1149685%" id="linearGradient-56">
            <stop stop-color="#F79A09" offset="0%"></stop>
            <stop stop-color="#FEFD00" offset="73.6%"></stop>
            <stop stop-color="#FEFE26" offset="77.8%"></stop>
            <stop stop-color="#FFFE54" offset="83.7%"></stop>
            <stop stop-color="#FFFF76" offset="88.9%"></stop>
            <stop stop-color="#FFFF8B" offset="93.2%"></stop>
            <stop stop-color="#FFFF92" offset="96.1%"></stop>
        </linearGradient>
        <linearGradient x1="47.642622%" y1="71.2229573%" x2="54.3019563%" y2="27.2334023%" id="linearGradient-57">
            <stop stop-color="#F79A09" offset="0%"></stop>
            <stop stop-color="#FEFD00" offset="73.6%"></stop>
            <stop stop-color="#FEFE26" offset="77.8%"></stop>
            <stop stop-color="#FFFE54" offset="83.7%"></stop>
            <stop stop-color="#FFFF76" offset="88.9%"></stop>
            <stop stop-color="#FFFF8B" offset="93.2%"></stop>
            <stop stop-color="#FFFF92" offset="96.1%"></stop>
        </linearGradient>
        <linearGradient x1="49.5767384%" y1="79.3022458%" x2="49.3141202%" y2="24.8460207%" id="linearGradient-58">
            <stop stop-color="#DE5C01" offset="0%"></stop>
            <stop stop-color="#FEFD00" offset="73.6%"></stop>
            <stop stop-color="#FEFE26" offset="77.8%"></stop>
            <stop stop-color="#FFFE54" offset="83.7%"></stop>
            <stop stop-color="#FFFF76" offset="88.9%"></stop>
            <stop stop-color="#FFFF8B" offset="93.2%"></stop>
            <stop stop-color="#FFFF92" offset="96.1%"></stop>
        </linearGradient>
        <linearGradient x1="22.6698095%" y1="67.6602434%" x2="91.5796015%" y2="40.1539048%" id="linearGradient-59">
            <stop stop-color="#B9120D" offset="0%"></stop>
            <stop stop-color="#BB180D" offset="7.8%"></stop>
            <stop stop-color="#C0290C" offset="18.2%"></stop>
            <stop stop-color="#C8450A" offset="30.1%"></stop>
            <stop stop-color="#D36C08" offset="43.1%"></stop>
            <stop stop-color="#E29E05" offset="57.1%"></stop>
            <stop stop-color="#F4DA02" offset="71.5%"></stop>
            <stop stop-color="#FEFD00" offset="79.2%"></stop>
            <stop stop-color="#FEFD07" offset="81.4%"></stop>
            <stop stop-color="#FEFD1B" offset="84.6%"></stop>
            <stop stop-color="#FEFE3C" offset="88.4%"></stop>
            <stop stop-color="#FFFE69" offset="92.7%"></stop>
            <stop stop-color="#FFFFA3" offset="97.4%"></stop>
            <stop stop-color="#FFFFC7" offset="100%"></stop>
        </linearGradient>
        <linearGradient x1="40.4105704%" y1="50.7787%" x2="140.526187%" y2="58.4724999%" id="linearGradient-60">
            <stop stop-color="#DE7210" offset="5.6%"></stop>
            <stop stop-color="#F6C08F" offset="100%"></stop>
        </linearGradient>
        <linearGradient x1="32.8529794%" y1="44.9067311%" x2="149.825144%" y2="80.3496685%" id="linearGradient-61">
            <stop stop-color="#DE7210" offset="5.6%"></stop>
            <stop stop-color="#F6C08F" offset="100%"></stop>
        </linearGradient>
        <linearGradient x1="22.9268103%" y1="23.6549365%" x2="152.943198%" y2="188.759158%" id="linearGradient-62">
            <stop stop-color="#DE7210" offset="5.6%"></stop>
            <stop stop-color="#F6C08F" offset="100%"></stop>
        </linearGradient>
    </defs>
    <g id="1-Part-1-✓" stroke="none" stroke-width="1" fill="none" fill-rule="evenodd">
        <g id="Store-Locator-Result-Copy" transform="translate(-524.000000, -631.000000)">
            <g id="Group-3" transform="translate(517.000000, 631.000000)">
                <g id="Firefox" transform="translate(7.000000, 0.000000)">
                    <ellipse id="Oval" fill="#110070" fill-rule="nonzero" cx="32.9776" cy="31.888" rx="31.5210667" ry="31.5413333"></ellipse>
                    <ellipse id="Oval" fill="url(#radialGradient-1)" fill-rule="nonzero" cx="32.9776" cy="31.888" rx="30.9253333" ry="30.9461333"></ellipse>
                    <path d="M28.5418667,47.8618667 C28.5034667,47.6944 28.0864,47.2074667 27.7674667,47.0981333 C27.4485333,46.9893333 27.136,47.568 26.9312,46.6074667 C26.2586667,46.9936 25.9685333,46.5013333 25.9685333,46.5013333 C25.9685333,46.5013333 25.2437333,46.544 25.1029333,47.4314667 C24.7578667,47.8405333 23.8730667,49.3258667 24.3429333,47.7808 C24.816,46.2261333 23.8437333,47.6586667 23.7536,48.44 C23.5850667,48.7866667 23.2997333,48.8213333 23.4789333,47.2618667 C22.856,47.0464 22.5370667,45.6005333 22.8789333,45.5728 C22.4821333,45.0197333 22.7936,44.1744 23.1242667,44.2192 C23.4549333,44.2618667 24.0218667,43.4970667 24.0048,43.3189333 C23.9872,43.1424 24.2602667,43.2688 24.2437333,42.0778667 C24.2261333,40.8848 24.6933333,40.5888 24.7317333,41.5872 C24.7717333,42.5813333 25.3658667,41.2613333 25.3050667,40.7546667 C25.2432,40.2512 25.3637333,39.1109333 25.7264,39.7850667 C25.3050667,38.1184 25.6373333,38.0533333 25.8901333,39.1621333 C26.5242667,39.2122667 26.5461333,39.5498667 26.5461333,39.5498667 C27.2474667,39.3770667 27.5834667,39.9056 27.6384,40.2021333 C28.288,39.4352 28.9450667,40.2624 28.9450667,40.2624 C28.9450667,40.2624 29.3978667,40.112 29.1813333,40.8997333 C28.9632,41.6848 30.1226667,41.2602667 29.8458667,40.696 C30.4154667,40.4074667 31.2618667,41.2810667 31.5285333,41.8778667 C31.7952,42.4768 31.0714667,43.3242667 31.6357333,43.5290667 C32.2026667,43.7328 31.9541333,44.7194667 31.9541333,44.7194667 C31.9541333,44.7194667 33.1402667,45.3776 32.3168,45.9424 L32.0368,46.6144 C32.0368,46.6144 32.5733333,47.2128 32.7562667,46.8565333 C32.9386667,46.4997333 33.0032,47.2192 33.0032,47.2192 C32.9349333,47.0922667 33.1349333,47.9610667 33.8746667,48.1434667 C34.6170667,48.3248 35.0869333,49.4986667 34.2629333,49.5125333 C33.4416,49.5264 33.3781333,49.504 33.1557333,49.9834667 C32.9338667,50.4608 31.8858667,50.4778667 31.3424,49.8597333 C30.7648,50.0554667 29.7376,49.8032 30.04,49.3413333 C29.5418667,49.632 29.0714667,48.8517333 29.4602667,48.5029333 C29.8496,48.1568 29.2416,47.7077333 29.0373333,48.2042667 C28.8352,48.7013333 27.76,48.9461333 27.8352,48.1008 C27.8576,47.8501333 28.4304,47.7034667 28.4373333,47.9130667 C28.5424,48.1546667 28.5850667,47.8933333 28.5418667,47.8618667 L28.5418667,47.8618667 Z" id="Path" fill="url(#radialGradient-2)" fill-rule="nonzero"></path>
                    <path d="M54.1130667,23.6757333 C54.2768,23.8389333 54.6005333,23.8021333 54.7792,23.7525333 C54.9589333,23.7008 54.9338667,23.5733333 55.0890667,23.5232 C55.2416,23.4714667 55.8314667,23.7525333 55.6773333,24.3648 C55.32,24.4144 55.1898667,24.8490667 55.1898667,24.8490667 C55.1898667,24.8490667 54.832,25.0016 54.6512,24.9258667 C54.472,24.8490667 54.472,24.8741333 54.2154667,24.8986667 C53.9589333,24.9258667 53.3424,24.5690667 54.0096,24.5690667 C54.6773333,24.5690667 53.9338667,24.2618667 53.6512,24.2618667 C53.3696,24.2618667 53.6,23.9813333 53.9344,24.0586667 C53.7018667,23.6757333 53.8304,23.3936 54.1130667,23.6757333 L54.1130667,23.6757333 Z" id="Path" fill="url(#radialGradient-3)" fill-rule="nonzero"></path>
                    <path d="M51.8,25.0608 C51.6213333,25.2384 51.8266667,25.7749333 52.0570667,25.7488 C52.2864,25.7237333 52.6464,25.6218667 52.6464,25.6218667 C52.6464,25.6218667 52.8250667,25.9786667 52.6464,26.0816 C52.4677333,26.1829333 51.9456,26.1381333 52.6218667,26.3877333 C53.3141333,26.6421333 53.4928,26.5653333 53.544,26.4373333 C53.5962667,26.3109333 53.8256,25.8773333 53.9552,25.9034667 C54.0576,25.6741333 53.5962667,25.4698667 53.8528,25.3157333 C54.1077333,25.1626667 53.9045333,24.6026667 53.9045333,24.6026667 C53.9045333,24.6026667 53.5445333,24.6277333 53.3909333,24.8832 C53.2368,25.1381333 53.0330667,24.8581333 52.8789333,24.8581333 C52.8528,25.0106667 52.7498667,25.1376 52.7498667,25.1376 L52.648,24.9066667 C52.6469333,24.9072 51.928,24.8821333 51.8,25.0608 L51.8,25.0608 Z" id="Path" fill="url(#radialGradient-4)" fill-rule="nonzero"></path>
                    <path d="M47.0074667,25.4810667 C46.9850667,25.4154667 47.2112,25.1509333 47.1509333,25.4933333 C47.0117333,25.7370667 47.7130667,25.9557333 47.9098667,25.6848 C48.5685333,24.7818667 47.288,24.3445333 46.7322667,24.7642667 C46.1717333,25.1877333 45.8624,24.28 46.5066667,24.1504 C47.1488,24.0208 47.2032,22.8597333 46.4954667,22.8554667 C47.12,22.5472 46.2549333,21.6234667 45.5397333,21.4661333 C45.424,20.4730667 44.3765333,19.8416 43.8256,20.2016 C43.2693333,20.5632 43.2218667,20.5002667 42.4064,20.0048 C41.5946667,19.5125333 41.2037333,21.0288 41.8010667,21.6922667 C42.4016,22.3594667 41.9658667,23.4346667 41.9904,23.2512 C41.9904,23.2512 41.7642667,23.6581333 41.7792,23.8101333 C41.0917333,24.0432 40.8912,23.0757333 40.4645333,22.8613333 C40.1536,23.2666667 39.6522667,23.4832 39.6522667,23.4832 L39.6896,22.6581333 C39.6896,22.6581333 37.5557333,21.496 36.9002667,21.8213333 C36.0922667,22.0704 35.9013333,23.9413333 36.6346667,24.2154667 C37.3696,24.4922667 35.7130667,25.1813333 37.3749333,26.9328 C39.0816,28.7317333 39.7418667,28.7829333 40.0896,28.4901333 C40.176,28.4165333 40.3248,28.3061333 40.5061333,28.1829333 C40.5226667,28.2522667 40.5504,28.3184 40.5930667,28.3813333 C41.0202667,29.0234667 39.6,29.5301333 39.4021333,30.4501333 C39.2010667,31.3802667 39.3866667,33.1098667 40.2288,33.1690667 C40.3893333,32.2469333 41.9658667,32.5728 41.1077333,33.408 C40.2346667,34.2592 40.8474667,34.4096 40.8474667,34.4096 C40.8474667,34.4096 40.8885333,36.0048 42.2245333,35.4949333 C42.1856,35.5861333 42.1546667,35.7029333 42.1354667,35.8304 C41.7621333,35.7552 40.8496,35.6405333 40.6261333,36.2773333 C40.3445333,37.0805333 39.1525333,36.0048 38.3178667,36.3658667 C37.488,36.7237333 36.2757333,37.8992 36.6842667,38.7258667 C37.4682667,38.3541333 38.0682667,40.0309333 36.9733333,39.6869333 C35.8741333,39.3418667 36.0874667,39.9962667 36.0874667,39.9962667 C36.0874667,39.9962667 34.9429333,40.8992 36.0144,41.8597333 C35.6032,41.9232 34.8714667,42.3813333 35.1178667,43.3872 C35.1178667,43.3872 34.648,43.4037333 34.5845333,44.304 C33.0501333,44.6133333 33.144,45.0890667 35.4517333,44.5674667 C34.5205333,45.0501333 36.1029333,45.2784 36.8042667,45.2138667 C37.5066667,45.1498667 39.3498667,46.0586667 37.9648,46.0682667 C36.5776,46.0768 36.9904,46.7557333 38.6528,46.7877333 C40.312,46.8218667 40.1376,47.2064 40.384,47.1898667 C40.6304,47.1722667 41.7029333,48.0186667 41.6453333,48.488 C41.5850667,48.9573333 42.7690667,49.4448 43.5392,48.9066667 C43.5786667,49.3952 45.6037333,49.0144 45.9034667,48.1338667 C48.0965333,48.4688 48.0458667,48.0597333 47.5578667,47.8 C46.4597333,47.6325333 44.4448,46.1722667 46.6298667,46.9237333 C48.8042667,47.6730667 46.7093333,46.3333333 46.1365333,45.8186667 C44.888,45.576 44.8245333,44.5354667 44.8245333,44.5354667 C44.8245333,44.5354667 45.5141333,44.1429333 44.9701333,43.1616 C46.3184,42.9114667 45.504,42.4373333 45.6554667,41.9845333 C45.8069333,41.5312 46.4917333,40.9530667 46.7264,40.9066667 C46.7706667,40.8458667 47.1381333,40.9189333 46.7973333,41.0576 C46.5029333,41.0602667 46.712,41.8890667 47.064,41.9317333 C48.2544,42.0762667 47.9066667,40.5216 47.2069333,40.2090667 C46.5056,39.8938667 47.1354667,39.0384 47.6277333,39.6144 C48.12,40.1893333 49.2181333,39.5434667 48.8058667,38.8154667 C49.4608,39.2693333 49.8138667,37.8010667 49.5349333,36.9589333 C50.4106667,36.2 50.3818667,34.6869333 49.7050667,34.3477333 C49.3717333,34.1813333 49.2112,34.0741333 49.1301333,33.8672 C49.5322667,33.6773333 50.0656,33.5370667 50.2752,33.7242667 C50.6154667,34.032 51.5632,33.1834667 51.5029333,32.1914667 C51.9018667,32.4101333 52.5370667,30.3882667 51.9973333,29.6805333 C53.2330667,27.9530667 52.9002667,27.7962667 52.4869333,28.0858667 C51.8650667,28.9477333 49.8234667,29.9781333 51.4064,28.4512 C52.9424,26.9690667 50.9973333,28.0933333 50.3472,28.3344 C49.5813333,29.2928 48.7696,28.832 48.7696,28.832 C48.7696,28.832 48.8037333,28.0469333 47.8149333,28.0304 C48.272,26.7701333 47.536,27.2250667 47.2778667,26.8816 C47.0213333,26.536 46.928,25.6954667 47.0074667,25.4810667 L47.0074667,25.4810667 Z" id="Path" fill="url(#radialGradient-5)" fill-rule="nonzero"></path>
                    <path d="M30.9866667,12.8517333 C30.7952,13.352 31.6122667,14.1642667 32.0229333,13.9029333 C32.4346667,13.6389333 33.024,13.1152 33.024,13.1152 C33.024,13.1152 33.6490667,13.6176 33.3968,13.9754667 C33.1424,14.3322667 32.1296,14.7333333 33.5952,14.5706667 C35.0992,14.4048 35.3733333,14.0944 35.3658667,13.8074667 C35.3578667,13.5216 35.4405333,12.4965333 35.7008,12.4250667 C35.7088,11.8992 34.6784,11.9477333 35.0352,11.4218667 C35.392,10.8981333 34.5546667,10.0373333 34.5546667,10.0373333 C34.5546667,10.0373333 33.9024,10.4192 33.8208,11.04 C33.7386667,11.6602667 33.1285333,11.3258667 32.8394667,11.4682667 C32.9146667,11.7786667 32.8256,12.112 32.8256,12.112 L32.448,11.7781333 C32.448,11.7781333 31.0816,12.3989333 30.9866667,12.8517333 L30.9866667,12.8517333 Z" id="Path" fill="url(#radialGradient-6)" fill-rule="nonzero"></path>
                    <path d="M33.432,39.1077333 C33.2533333,39.2853333 33.4581333,39.8208 33.688,39.7962667 C33.9189333,39.7701333 34.2778667,39.6688 34.2778667,39.6688 C34.2778667,39.6688 34.4570667,40.0256 34.2778667,40.128 C34.0981333,40.2293333 33.5770667,40.1856 34.2522667,40.4336 C34.944,40.6885333 35.1242667,40.6122667 35.1754667,40.4853333 C35.2266667,40.3578667 35.4570667,39.9237333 35.5856,39.9488 C35.6890667,39.72 35.2266667,39.5157333 35.4826667,39.3637333 C35.7397333,39.2090667 35.536,38.6490667 35.536,38.6490667 C35.536,38.6490667 35.1765333,38.6741333 35.0224,38.9296 C34.8688,39.1845333 34.6634667,38.9034667 34.5093333,38.9034667 C34.4837333,39.0565333 34.3824,39.184 34.3824,39.184 L34.2794667,38.9546667 C34.2784,38.9546667 33.5594667,38.9290667 33.432,39.1077333 L33.432,39.1077333 Z" id="Path" fill="url(#radialGradient-7)" fill-rule="nonzero"></path>
                    <g id="Clipped" transform="translate(1.600000, 0.533333)">
                        <mask id="mask-9" fill="white">
                            <use xlink:href="#path-8"></use>
                        </mask>
                        <g id="h"></g>
                        <path d="M32.0709333,0.345066667 C31.5872,0.453333333 32.3968,2.2064 32.3968,2.2064 C32.3968,2.2064 32.368,3.38346667 32.5674667,3.4432 C32.7664,3.50346667 34.0821333,3.832 34.7701333,4.6896 C35.4618667,5.54613333 35.1024,5.99786667 34.5269333,5.74986667 C33.9509333,5.50346667 34.1034667,6.25973333 34.1034667,6.25973333 C34.1034667,6.25973333 35.8410667,6.82453333 34.5290667,6.78826667 C33.2138667,6.7536 35.4144,7.7136 35.2688,7.81386667 C35.1232,7.9152 35.0410667,8.46773333 35.0410667,8.46773333 C35.0410667,8.46773333 33.8810667,8.56426667 34.864,8.97706667 C38.1893333,10.3776 34.5088,9.99946667 34.5088,9.99946667 L34.0389333,10.5770667 L34.9685333,11.7429333 L35.6832,12.2538667 C35.6832,12.2538667 37.1877333,11.752 37.6570667,11.6736 C38.1264,11.5962667 39.3114667,10.7093333 39.3114667,10.7093333 C39.3114667,10.7093333 39.6666667,10.9637333 39.4010667,10.4453333 C39.1349333,9.92693333 40.3792,10.1578667 40.6890667,10.544 L42.8853333,11.536 C42.9141333,11.6122667 42.9626667,11.6816 43.0405333,11.7354667 C43.4688,12.0357333 42.6533333,12.5509333 42.736,13.0965333 C42.8186667,13.6362667 43.3162667,14.5328 43.8629333,14.4384 C43.7674667,13.9237333 44.8464,13.8613333 44.4709333,14.4357333 C44.096,15.0069333 44.512,14.9962667 44.512,14.9962667 C44.512,14.9962667 44.8586667,15.8042667 45.592,15.3552 C45.5626667,15.6016 45.7130667,16.0976 46.3429333,16.1301333 C46.3429333,16.1301333 46.2762667,16.3994667 46.7936,16.5898667 C46.7232,17.5125333 47.0186667,17.5418667 47.0917333,16.1402667 C47.2218667,16.7557333 47.6186667,15.8901333 47.6976,15.4762667 C47.7776,15.0602667 48.6309333,14.1461333 48.4,14.9541333 C48.1712,15.7552 50.9152,16.048 51.2202667,15.0917333 C51.5269333,14.1274667 52.6208,13.6245333 52.6533333,13.4784 C52.6869333,13.3290667 50.2192,13.0997333 50.4917333,13.216 C50.7648,13.3317333 51.2725333,12.7130667 51.0837333,12.1610667 C51.3898667,12.2229333 51.5248,10.9386667 51.0394667,10.6064 C51.6469333,9.32853333 51.3856,9.28853333 51.1365333,9.54293333 C50.8336,10.1829333 49.584,11.1488 50.4314667,9.95893333 C51.2864,8.7568 50.0842667,9.80853333 49.6672,10.0698667 C49.3013333,10.7813333 48.6586667,10.6432 48.6586667,10.6432 C48.6586667,10.6432 48.5408,10.1589333 47.8528,10.3210667 C47.9328,9.46453333 47.5061333,9.87626667 47.2581333,9.70826667 C47.1066667,9.60533333 46.9616,9.37493333 46.872,9.17706667 C47.4645333,9.41706667 48.2597333,9.67253333 48.1226667,9.23253333 C48.0336,8.944 49.2442667,9.57386667 49.2864,9.44266667 L50.8,9.23253333 L52.2704,8.30293333 C42.8693333,-0.0997333333 32.0709333,0.345066667 32.0709333,0.345066667 L32.0709333,0.345066667 Z" id="Path" fill="url(#linearGradient-10)" fill-rule="nonzero" mask="url(#mask-9)"></path>
                    </g>
                    <g id="Clipped" transform="translate(1.600000, 0.533333)">
                        <mask id="mask-12" fill="white">
                            <use xlink:href="#path-11"></use>
                        </mask>
                        <g id="k"></g>
                        <path d="M18.0954667,3.0512 C12.4789333,5.5728 8.24106667,10.7701333 8.24106667,10.7701333 C8.24106667,10.7701333 8.7392,11.9098667 8.91253333,11.8256 C9.088,11.7429333 7.65866667,14.8154667 8.70773333,14.9882667 C9.76266667,15.1616 12.7962667,13.0874667 12.2336,13.2784 C11.6725333,13.4672 12.5498667,12.1557333 12.5498667,12.1557333 C12.5498667,12.1557333 14.1285333,11.4554667 13.1946667,12.2634667 C12.2688,13.0661333 14.4261333,12.3626667 14.3925333,12.5269333 C14.3584,12.6922667 14.6709333,13.136 14.6709333,13.136 C14.6709333,13.136 13.9312,13.9296 14.8864,13.6101333 C18.1648,12.5072 15.3184,14.5546667 15.3184,14.5546667 L15.3744,15.2517333 L16.7925333,15.4986667 L17.6309333,15.4186667 C17.6309333,15.4186667 18.3642667,14.1248 18.648,13.7733333 C18.9322667,13.4208 19.1941333,12.0288 19.1941333,12.0288 C19.1941333,12.0288 19.6202667,11.9845333 19.0810667,11.7802667 C18.5408,11.576 19.5968,10.9392 20.0826667,11.0181333 L22.368,10.3082667 C22.4410667,10.3445333 22.5232,10.3632 22.6176,10.352 C23.1408,10.2912 22.8773333,11.2032 23.3050667,11.5472 C23.7285333,11.8890667 24.7013333,12.2192 25.0490667,11.7968 C24.6325333,11.4810667 25.4069333,10.7285333 25.5061333,11.3973333 C25.6053333,12.0613333 25.9136,11.7808 25.9136,11.7808 C25.9136,11.7808 26.7333333,10.3712 26.9952,9.56266667 C27.1386667,9.76266667 28.4762667,7.8048 28.0709333,6.87093333 C27.6613333,5.92533333 28.3253333,5.0352 28.2512,4.89706667 C28.1754667,4.7616 27.7749333,5.17866667 28.0709333,5.0784 C28.3690667,4.97653333 27.2266667,5.48853333 27.0757333,3.98346667 C26.9226667,2.44853333 26.6997333,4.11253333 26.552,4.6048 C26.7525333,5.40586667 28.8309333,1.368 28.8309333,1.368 L31.5104,0.2752 C31.5109333,0.2768 25.4122667,-0.2336 18.0954667,3.0512 Z" id="Path" fill="url(#linearGradient-13)" fill-rule="nonzero" mask="url(#mask-12)"></path>
                    </g>
                    <ellipse id="Oval" fill="url(#linearGradient-14)" fill-rule="nonzero" opacity="0.5" cx="32.3914667" cy="12.7082667" rx="16.3749333" ry="10.6090667"></ellipse>
                    <path d="M65.6832,23.2336 L64.9253333,28.0944 C64.9253333,28.0944 63.8426667,19.0954667 62.5152,15.7306667 C60.4805333,10.5754667 59.5749333,10.6170667 59.5696,10.6250667 C60.9317333,14.088 60.6848,15.9482667 60.6848,15.9482667 C60.6848,15.9482667 58.2704,9.368 51.8858667,7.27413333 C44.3258667,4.79626667 40.4746667,5.6912 40.5029333,5.7264 C40.5317333,5.76106667 48.3168,7.08693333 49.6976,8.98453333 C49.6976,8.98453333 46.3904,8.98453333 43.0992,9.93226667 C42.9509333,9.97493333 55.2074667,11.4634667 57.7136,23.7114667 C57.7136,23.7114667 56.3701333,20.9077333 54.7082667,20.432 C55.8005333,23.7562667 55.5205333,30.0645333 54.48,33.2 C54.3466667,33.6037333 54.2090667,31.4565333 52.1589333,30.5333333 C52.8149333,35.2378667 52.1194667,42.7013333 48.8549333,44.7562667 C48.6005333,44.9162667 50.9013333,37.3898667 49.3178667,40.2997333 C39.8634667,54.7957333 28.6234667,46.1648 24.064,43.0885333 C27.7237333,43.9850667 31.6101333,43.3397333 33.8608,41.8010667 C36.1317333,40.248 37.4746667,39.1141333 38.6816,39.3818667 C39.8874667,39.6517333 40.6906667,38.4416 39.7536,37.368 C38.816,36.2917333 36.5392,34.8133333 33.4592,35.6197333 C31.2874667,36.1882667 28.5952,38.592 24.4858667,36.1584 C20.9808,34.0810667 21.0042667,32.3946667 21.0042667,31.3205333 C21.0042667,30.2453333 21.9605333,28.6112 23.7008,28.8789333 C25.2592,29.12 24.4378667,28.2048 26.1152,28.8789333 C26.5722667,29.0629333 26.0693333,26.6858667 25.4192,25.1626667 C26.6714667,22.5493333 30.7333333,21.7728 31.0362667,21.5434667 C31.5856,21.1285333 31.2837333,20.9210667 31.4709333,20.2954667 C31.6464,19.7125333 31.7584,18.1376 27.2122667,18.5733333 C25.12,18.7733333 23.7893333,16.0624 23.3530667,15.4048 C23.4944,14.5664 23.7210667,13.8010667 24.0288,13.0997333 C24.3402667,12.4613333 24.6805333,11.8757333 25.0208,11.4325333 L25.3034667,11.0586667 C25.9808,10.2682667 26.8133333,9.592 27.8117333,9.03093333 C28.3328,8.73653333 21.9845333,9.01226667 19.128,12.7349333 C18.3616,12.8352 17.3098667,12.6138667 16.1338667,12.6138667 C14.6608,12.6138667 13.5029333,12.7749333 12.4314667,13.0437333 C12.2597333,13.0874667 11.9834667,13.0634667 11.6442667,12.9834667 C10.7018667,12.0064 8.0336,9.65866667 7.91146667,6.4736 C7.91146667,6.4736 4.03253333,9.45493333 4.6128,17.5818667 C4.5616,22.0773333 3.2352,20.7925333 2.55253333,23.2314667 C2.23466667,24.3872 3.02986667,25.2576 3.02986667,25.2917333 C3.0288,25.3093333 3.98346667,24.2581333 3.98346667,24.2581333 C3.98346667,24.2581333 -2.03093333,34.6789333 5.7376,47.9824 C12.4325333,59.4506667 23.6688,64.5189333 35.3274667,63.5328 C37.3674667,63.4 39.4208,63.096 41.4709333,62.6010667 C68.6362667,56.0336 65.6832,23.2336 65.6832,23.2336 Z" id="Path" fill="url(#linearGradient-15)" fill-rule="nonzero"></path>
                    <path d="M23.2634667,15.0128 C23.2634667,15.0128 24.4373333,18.2208 27.0704,18.2106667 C32.0944,18.1904 32.1952,18.2608 32.2272,18.8709333 C32.3274667,20.7306667 31.4090667,21.3397333 31.0581333,21.6042667 C30.7056,21.8677333 25.9226667,24.6410667 25.7466667,25.4346667 C25.5712,26.2277333 20.2272,17.8917333 20.2272,17.8917333 L23.2634667,15.0128 Z" id="Path" fill="url(#linearGradient-16)" fill-rule="nonzero"></path>
                    <path d="M25.9381333,18.4714667 C25.9381333,18.4714667 27.5701333,20.5552 26.336,21.3888 C24.8288,22.4069333 28.4672,22.6288 29.7856,21.8890667 C31.104,21.1493333 31.9141333,20.0618667 31.96,19.9002667 C32.0058667,19.7381333 32.4389333,18.2773333 29.6869333,18.7866667 C27.9472,19.1082667 27.3093333,19.1824 25.9381333,18.4714667 Z" id="Path" fill="url(#linearGradient-17)" fill-rule="nonzero"></path>
                    <path d="M31.0586667,21.6048 C31.3253333,21.4032 31.9173333,21.0005333 32.1434667,20.0048 C31.9786667,20.0714667 31.9632,19.8821333 31.7685333,19.9642667 C28.0741333,23.8186667 27.9322667,21.1344 25.9157333,21.6752 C24.0778667,22.1781333 23.6645333,22.8682667 23.5872,22.9216 L23.6698667,23.0389333 C24.1994667,23.3082667 24.7066667,24.1658667 25.0885333,24.9322667 C25.4613333,25.3765333 25.7114667,25.5946667 25.7472,25.4336 C25.9226667,24.6416 30.7072,21.8682667 31.0586667,21.6048 L31.0586667,21.6048 Z" id="Path" fill="url(#linearGradient-18)" fill-rule="nonzero"></path>
                    <path d="M3.45493333,24.6666667 C2.7008,26.2496 -2.13973333,34.4293333 5.76,48.0432 C13.4906667,61.3685333 26.8693333,65.72 40.5285333,62.7637333 C44.4277333,61.92 48.9232,58.8693333 51.7888,56.6304 C49.9477333,51.9872 51.0373333,52.1616 50.0506667,52.7722667 C39.0474667,59.5845333 30.3002667,52.8645333 23.5301333,52.0058667 C-1.376,48.8496 3.5424,24.6176 3.5424,24.6176 L3.45493333,24.6666667 Z" id="Path" fill="url(#linearGradient-19)" fill-rule="nonzero"></path>
                    <path d="M24.1930667,43.3402667 C26.5402667,44.0437333 31.6624,43.4373333 33.8618667,41.8010667 C35.344,40.6992 36.4634667,39.8682667 37.4058667,39.5210667 C35.7408,38.3898667 35.7146667,39.9930667 32.2138667,40.8037333 C24.9210667,42.4954667 21.3802667,38.8410667 21.3802667,38.8410667 C21.8970667,41.7328 23.7024,43.1408 24.5157333,43.6410667 C24.3002667,43.4501333 24.1872,43.3381333 24.1930667,43.3402667 L24.1930667,43.3402667 Z" id="Path" fill="url(#linearGradient-20)" fill-rule="nonzero"></path>
                    <path d="M16.2853333,56.5466667 C16.2853333,56.5466667 10.2144,49.696 8.51946667,42.024 C6.0208,39.664 4.24746667,37.6682667 3.06986667,36.2250667 C3.74986667,41.6842667 6.53333333,50.16 16.2853333,56.5466667 Z" id="Path" fill="url(#linearGradient-21)" fill-rule="nonzero"></path>
                    <path d="M11.2208,50.3248 C11.2208,50.3248 7.03146667,44.36 8.60213333,39.296 C10.0154667,34.7424 8.30186667,37.4512 7.30506667,38.4245333 C6.29866667,39.408 5.7808,35.5221333 5.80693333,35.0741333 L5.8064,35.0597333 C5.74293333,35.0458667 3.81173333,44.3701333 11.2208,50.3248 Z" id="Path" fill="url(#linearGradient-22)" fill-rule="nonzero"></path>
                    <path d="M5.01386667,45.1253333 C5.01386667,45.1253333 4.05866667,33.0197333 7.07786667,31.3088 C11.8725333,28.592 7.47786667,29.2272 6.08746667,29.9813333 C4.68266667,30.7424 4.8128,25.7317333 5.0112,25.256 C5.20586667,24.7861333 0.0629333333,29.9930667 5.01386667,45.1253333 L5.01386667,45.1253333 Z" id="Path" fill="url(#linearGradient-23)" fill-rule="nonzero"></path>
                    <path d="M25.9893333,9.50346667 C25.9893333,9.50346667 22.1941333,13.3589333 22.2224,13.3728 C22.2512,13.3861333 22.3312,18.3205333 22.4554667,19.7194667 C22.9104,20.2570667 24.3274667,23.7504 23.2426667,22.9749333 C22.1344,22.1834667 22.9333333,22.1664 23.0304,22.568 L23.0304,22.5877333 C22.9562667,22.6224 20.2757333,16.7856 25.9893333,9.50346667 L25.9893333,9.50346667 Z" id="Path" fill="#A40000" fill-rule="nonzero"></path>
                    <path d="M7.9344,6.53333333 C7.9344,6.53333333 3.90026667,9.6288 4.67093333,18.1173333 C7.7936,15.3141333 12.2090667,13.2186667 12.2090667,13.2186667 C11.4682667,12.7514667 8.06933333,10.032 7.9344,6.53333333 Z" id="Path" fill="url(#linearGradient-24)" fill-rule="nonzero"></path>
                    <path d="M17.8768,15.8165333 L23.936,23.352 C22.1882667,15.952 23.5317333,11.5125333 27.8352,9.09013333 C28.472,8.7312 18.8442667,9.21973333 17.8768,15.8165333 L17.8768,15.8165333 Z" id="Path" fill="url(#linearGradient-25)" fill-rule="nonzero"></path>
                    <path d="M13.6074667,34.432 C14.6410667,27.9210667 23.7018667,28.8784 23.7018667,28.8784 C23.2981333,29.1786667 21.7456,29.3578667 21.3013333,30.6005333 C19.8336,34.7008 21.2336,43.6581333 30.3733333,47.4149333 C31.3370667,47.8122667 12.0805333,44.0533333 13.6074667,34.432 Z" id="Path" fill="url(#linearGradient-26)" fill-rule="nonzero"></path>
                    <path d="M32.0912,20.1813333 C32.0469333,20.1733333 32.0074667,20.1744 31.9877333,20.2010667 C31.8762667,20.3504 31.4453333,20.8586667 30.4208,21.6944 C28.5178667,23.2421333 27.7146667,22.8501333 26.2970667,23.1674667 C25.6517333,23.312 25.0378667,23.7450667 24.6250667,24.0922667 C24.792,24.3621333 24.9482667,24.6538667 25.088,24.9328 C25.4608,25.3770667 25.7109333,25.5952 25.7466667,25.4341333 C25.9226667,24.6416 30.7066667,21.8682667 31.0581333,21.6037333 C31.3088,21.4165333 31.8389333,21.0442667 32.0912,20.1813333 L32.0912,20.1813333 Z" id="Path" fill="url(#linearGradient-27)" fill-rule="nonzero"></path>
                    <path d="M26.2496,30.0234667 C26.3034667,28.6474667 26.2064,25.3056 24.7765333,23.8554667 C23.6832,22.7477333 23.4272,21.4778667 23.2805333,20.0298667 C11.4005333,24.4677333 9.70453333,30.2682667 10.8922667,30.08 C20.3936,28.5728 23.0645333,28.3888 26.2496,30.0234667 Z" id="Path" fill="url(#linearGradient-28)" fill-rule="nonzero"></path>
                    <path d="M0.9216,38.1541333 C0.9216,38.1541333 1.7472,27.4272 7.11626667,23.5018667 C11.3312,20.4181333 8.0576,21.5381333 6.4304,21.6661333 C4.71413333,21.8016 3.79893333,22.8458667 4.13013333,22.4618667 L4.14666667,22.4325333 C4.0896,22.3664 0.117333333,25.7002667 0.9216,38.1541333 Z" id="Path" fill="url(#linearGradient-29)" fill-rule="nonzero"></path>
                    <path d="M0.355733333,29.9130667 C0.355733333,29.9130667 3.23306667,20.7797333 9.04746667,20.8576 C12.9034667,20.9088 9.8448,17.5984 8.6784,17.0954667 C7.46133333,16.5744 7.17066667,16.5946667 6.8864,16.8464 C6.46026667,17.224 2.63466667,17.0784 0.355733333,29.9130667 Z" id="Path" fill="url(#linearGradient-30)" fill-rule="nonzero"></path>
                    <path d="M39.5802667,38.8528 C40.0176,38.4245333 39.7130667,36.7792 36.9648,35.7824 C34.4714667,34.8762667 30.5792,37.1792 29.4245333,37.6336 C29.4245333,37.6336 33.8330667,36.808 35.4858667,37.0826667 C37.7269333,37.456 38.5136,39.8992 39.5802667,38.8528 Z" id="Path" fill="url(#linearGradient-31)" fill-rule="nonzero"></path>
                    <path d="M4.6032,35.8442667 C4.6032,35.8442667 4.12586667,26.8650667 8.14933333,23.0304 C11.3088,20.0186667 8.71733333,21.3008 7.3824,21.5834667 C5.9744,21.8821333 5.32906667,22.8458667 5.56213333,22.4922667 L5.57226667,22.4661333 C5.5184,22.4170667 2.58826667,25.6096 4.6032,35.8442667 Z" id="Path" fill="url(#linearGradient-32)" fill-rule="nonzero"></path>
                    <path d="M1.504,32.9914667 C1.504,32.9914667 3.20426667,24.1621333 8.03413333,21.4106667 C11.8266667,19.2490667 9.00266667,19.8693333 7.6384,19.8218667 C6.2,19.7728 5.34186667,20.5525333 5.6528,20.2650667 L5.66826667,20.2426667 C5.6288,20.1813333 2.01493333,22.5738667 1.504,32.9914667 Z" id="Path" fill="url(#linearGradient-33)" fill-rule="nonzero"></path>
                    <path d="M7.2384,36.616 C7.2384,36.616 6.3088,31.264 8.31253333,28.6298667 C9.91146667,26.528 8.50773333,27.5557333 7.76533333,27.8592 C6.99093333,28.1754667 6.6976,28.8 6.8032,28.5706667 C6.90506667,28.3472 3.35573333,31.0976 7.2384,36.616 Z" id="Path" fill="url(#linearGradient-34)" fill-rule="nonzero"></path>
                    <path d="M8.3008,31.5696 C8.3008,31.5696 7.3712,26.2176 9.3744,23.5829333 C10.9733333,21.4810667 9.5696,22.5093333 8.8272,22.8122667 C8.0528,23.1285333 7.75893333,23.7536 7.86506667,23.5242667 C7.96746667,23.3002667 4.41866667,26.0506667 8.3008,31.5696 Z" id="Path" fill="url(#linearGradient-35)" fill-rule="nonzero"></path>
                    <path d="M2.6816,24.2533333 C2.6816,24.2533333 4.85333333,19.8042667 7.7392,18.928 C10.0421333,18.2293333 8.456,18.24 7.74666667,18.0666667 C7.00533333,17.8869333 6.45546667,18.1904 6.65546667,18.0778667 C6.8512,17.968 2.7616,18.104 2.6816,24.2533333 Z" id="Path" fill="url(#linearGradient-36)" fill-rule="nonzero"></path>
                    <path d="M2.37173333,27.7738667 C2.37173333,27.7738667 4.54293333,23.3248 7.42933333,22.4490667 C9.73226667,21.7504 8.14613333,21.76 7.43626667,21.5866667 C6.69493333,21.4074667 6.14506667,21.7114667 6.3456,21.5984 C6.5408,21.4885333 2.4512,21.6250667 2.37173333,27.7738667 Z" id="Path" fill="url(#linearGradient-37)" fill-rule="nonzero"></path>
                    <path d="M3.94826667,26.8026667 C3.94826667,26.8026667 7.77813333,18.9546667 12.8698667,17.4085333 C16.9333333,16.176 14.1354667,16.1936 12.8826667,15.8890667 C11.5744,15.5722667 10.6048,16.1093333 10.9573333,15.9098667 C11.3024,15.7157333 4.08853333,15.9552 3.94826667,26.8026667 Z" id="Path" fill="url(#linearGradient-38)" fill-rule="nonzero"></path>
                    <path d="M6.5664,22.576 C6.5664,22.576 8.94826667,17.6949333 12.1152,16.7333333 C14.6426667,15.9664 12.9018667,15.9776 12.1232,15.7882667 C11.3093333,15.5914667 10.7066667,15.9248 10.9258667,15.8005333 C11.1402667,15.6789333 6.65333333,15.8282667 6.5664,22.576 L6.5664,22.576 Z" id="Path" fill="url(#linearGradient-39)" fill-rule="nonzero"></path>
                    <path d="M7.34293333,24.3002667 C7.34293333,24.3002667 9.51413333,19.8512 12.4,18.976 C14.7034667,18.2768 13.1173333,18.2869333 12.4074667,18.1136 C11.6656,17.9338667 11.1157333,18.2378667 11.3162667,18.1253333 C11.5109333,18.0144 7.4224,18.152 7.34293333,24.3002667 Z" id="Path" fill="url(#linearGradient-40)" fill-rule="nonzero"></path>
                    <path d="M32.2282667,18.8709333 C32.2032,18.4069333 32.1344,18.256 29.9141333,18.2176 C30.1685333,18.3328 30.6074667,18.5642667 31.0906667,18.9605333 C31.7285333,19.4832 31.832,20.0661333 31.8981333,20.6693333 C32.1136,20.2592 32.272,19.6917333 32.2282667,18.8709333 L32.2282667,18.8709333 Z" id="Path" fill="url(#linearGradient-41)" fill-rule="nonzero"></path>
                    <path d="M19.1904,12.6741333 L17.2645333,15.7728 C17.2645333,15.7728 9.56426667,14.5648 3.03573333,20.8805333 C2.49653333,21.4021333 7.30613333,9.71253333 19.1904,12.6741333 Z" id="Path" fill="url(#linearGradient-42)" fill-rule="nonzero"></path>
                    <path d="M12.2752,18.2202667 C12.2752,18.2202667 14.3274667,14.4101333 16.9882667,13.2586667 C15.6128,13.3018667 12.5242667,14.3776 12.2752,18.2202667 L12.2752,18.2202667 Z" id="Path" fill="url(#linearGradient-43)" fill-rule="nonzero"></path>
                    <path d="M4.3792,21.9386667 C4.3792,21.9386667 6.5504,17.4896 9.4368,16.6133333 C11.7397333,15.9146667 10.1536,15.9248 9.44426667,15.7514667 C8.7024,15.5722667 8.15306667,15.8762667 8.35306667,15.7626667 C8.54773333,15.6533333 4.45813333,15.7893333 4.3792,21.9386667 Z" id="Path" fill="url(#linearGradient-44)" fill-rule="nonzero"></path>
                    <path d="M8.92746667,18.8037333 C8.92746667,18.8037333 11.168,15.2176 13.8330667,14.2629333 C12.4912,14.2186667 9.41173333,15.0730667 8.92746667,18.8037333 Z" id="Path" fill="url(#linearGradient-45)" fill-rule="nonzero"></path>
                    <path d="M12.768,12.6778667 C12.768,12.6778667 11.0789333,13.416 8.10026667,12.1776 L10.7557333,13.5130667 L12.768,12.6778667 L12.768,12.6778667 Z" id="Path" fill="url(#linearGradient-46)" fill-rule="nonzero"></path>
                    <path d="M11.9514667,13.152 C11.9514667,13.152 9.7008,14.024 5.36746667,12.7258667 L9.0736,14.2005333 C9.5328,13.7765333 11.9514667,13.152 11.9514667,13.152 Z" id="Path" fill="url(#linearGradient-47)" fill-rule="nonzero"></path>
                    <path d="M13.5946667,12.4362667 C13.5946667,12.4362667 12.1008,12.8912 9.34026667,11.8234667 L11.9957333,13.1578667 C12.2762667,12.9104 13.5946667,12.4362667 13.5946667,12.4362667 L13.5946667,12.4362667 Z" id="Path" fill="url(#linearGradient-48)" fill-rule="nonzero"></path>
                    <path d="M8.93493333,14.1546667 C8.93493333,14.1546667 7.82453333,15.0762667 4.9808,15.1136 L7.44,15.1941333 L8.93493333,14.1546667 L8.93493333,14.1546667 Z" id="Path" fill="url(#linearGradient-49)" fill-rule="nonzero"></path>
                    <path d="M6.2336,18.8704 C6.2336,18.8704 10.0336,13.9205333 13.1626667,12.8 C11.5866667,12.7482667 6.8016,14.4922667 6.2336,18.8704 Z" id="Path" fill="url(#linearGradient-50)" fill-rule="nonzero"></path>
                    <path d="M65.0874667,27.3109333 C65.0874667,27.3109333 65.4970667,36.4949333 52.7397333,49.2528 C51.3216,50.6704 43.6234667,57.8821333 43.8944,60.0453333 C43.9893333,60.8106667 64.0917333,56.9621333 65.0874667,27.3109333 L65.0874667,27.3109333 Z" id="Path" fill="url(#linearGradient-51)" fill-rule="nonzero"></path>
                    <path d="M40.3536,5.70932069 C55.7205333,6.89013333 58.6954667,17.9392 58.6965333,17.2624 C58.736,6.5216 44.1178667,5.7056 40.3536,5.70932069 Z" id="Path" fill="url(#linearGradient-52)" fill-rule="nonzero"></path>
                    <path d="M45.0336,9.90986667 C45.0336,9.90986667 55.6864,12.0874667 58.6906667,23.3786667 C59.0890667,24.8741333 57.4069333,14.2058667 57.9258667,15.2186667 C58.4442667,16.2362667 53.6389333,10.2474667 45.0336,9.90986667 Z" id="Path" fill="url(#linearGradient-53)" fill-rule="nonzero"></path>
                    <path d="M49.2906667,9.6336 C49.2906667,9.6336 58.9114667,11.6394667 59.0069333,26.9034667 C59.0741333,37.7077333 60.6752,30.9594667 62.2634667,28.5317333 C63.6330667,26.4336 62.6970667,23.8778667 62.664,23.8848 C62.6592,23.8858667 61.9712,21.896 62.4346667,22.7392 C62.4554667,22.7765333 61.7888,22.1898667 61.7930667,22.1893333 C61.9008,22.1728 61.4234667,11.2176 49.2906667,9.6336 L49.2906667,9.6336 Z" id="Path" fill="url(#linearGradient-54)" fill-rule="nonzero"></path>
                    <path d="M60.1242667,11.7013333 C60.1242667,11.7013333 63.5797333,20.7029333 59.9173333,25.1792 C58.7221333,26.64 58.5882667,34.1242667 60.0485333,33.4368 C61.5125333,32.7482667 61.1946667,37.4112 61.0026667,37.9413333 L60.9994667,37.9578667 C61.0949333,38.0176 68.2197333,26.4522667 60.1242667,11.7013333 L60.1242667,11.7013333 Z" id="Path" fill="url(#linearGradient-55)" fill-rule="nonzero"></path>
                    <path d="M55.3205333,21.1781333 C55.3205333,21.1781333 57.496,27.5472 55.2181333,32.1002667 L56.9413333,35.9482667 C58.2048,32.8442667 59.8144,26.2784 55.3205333,21.1781333 Z" id="Path" fill="url(#linearGradient-56)" fill-rule="nonzero"></path>
                    <path d="M59.1461333,20.4208 C59.1461333,20.4208 60.6506667,30.5296 55.2224,39.6554667 C55.3066667,41.7664 54.936,43.6768 54.4277333,45.2506667 C54.6645333,45.5616 54.9808,45.7744 55.3984,45.8117333 C55.2144,45.9818667 55.0309333,46.1413333 54.8533333,46.2922667 C54.528,46.4368 54.1936,46.5882667 53.8698667,46.7450667 L53.6634667,47.2122667 C54.0245333,46.9589333 54.4272,46.6512 54.8528,46.2928 C55.9616,45.8026667 56.9594667,45.4229333 56.9573333,45.4202667 L56.2650667,45.6741333 C55.936,45.7936 55.6485333,45.8341333 55.3984,45.8117333 C59.5898667,41.9914667 65.3344,33.4469333 59.1461333,20.4208 Z M52.8213333,47.2954667 C52.3424,47.5765333 51.9936,47.84 51.9194667,48.0437333 C51.864,48.192 52.1909333,48.1061333 52.7557333,47.7893333 C52.7850667,47.6192 52.8090667,47.4533333 52.8213333,47.2954667 Z" id="Shape" fill="url(#linearGradient-57)" fill-rule="nonzero"></path>
                    <path d="M52.4506667,31.1914667 C52.4506667,31.1914667 56.7306667,43.3733333 43.0517333,54.7952 C42.2448,55.4688 48.6042667,55.1802667 49.1605333,54.928 C50.8,54.1834667 52.7376,49.2138667 52.5088,49.808 C52.2821333,50.4026667 58.8608,41.0245333 52.4506667,31.1914667 Z" id="Path" fill="url(#linearGradient-58)" fill-rule="nonzero"></path>
                    <path d="M58.4362667,38.9184 C58.4362667,38.9184 55.8549333,54.7189333 38.0048,55.9909333 C31.016,56.4896 20.9802667,54.8533333 21.8693333,57.5194667 C22.1450667,58.3456 23.4586667,61.792 26.4570667,62.5909333 C34.5712,64.7557333 56.16,64.0469333 58.4362667,38.9184 L58.4362667,38.9184 Z" id="Path" fill="url(#linearGradient-59)" fill-rule="nonzero"></path>
                    <path d="M43.5498667,50.8762667 C43.5498667,50.8762667 32.6282667,53.3712 25.5530667,47.3482667 C19.0789333,41.8362667 22.2906667,46.4752 23.1690667,48.7637333 C24.0709333,51.1109333 18.9968,49.3178667 18.2346667,48.9402667 C17.4746667,48.5674667 30.2528,56.5813333 43.5498667,50.8762667 Z" id="Path" fill="url(#linearGradient-60)" fill-rule="nonzero"></path>
                    <path d="M36.512,56.8288 C36.512,56.8288 23.4837333,54.2682667 19.3589333,45.44 C15.8341333,37.8981333 16.7669333,43.4325333 16.608,45.9514667 C16.4410667,48.5424 12.7877333,45.0042667 12.2997333,44.3888 L12.2752,44.3664 C12.2026667,44.4138667 18.9946667,55.0618667 36.512,56.8288 Z" id="Path" fill="url(#linearGradient-61)" fill-rule="nonzero"></path>
                    <path d="M22.28,55.6874667 C22.28,55.6874667 16.0576,50.8677333 13.2517333,44.2586667 C10.8938667,43.4394667 7.75946667,41.5674667 7.6976,41.2464 C8.69333333,46.3818667 13.9370667,52.3776 22.28,55.6874667 Z" id="Path" fill="url(#linearGradient-62)" fill-rule="nonzero"></path>
                </g>
            </g>
        </g>
    </g>
</svg>