<?xml version="1.0" encoding="UTF-8"?>
<svg width="59px" height="64px" viewBox="0 0 59 64" version="1.1" xmlns="http://www.w3.org/2000/svg" xmlns:xlink="http://www.w3.org/1999/xlink">
    <!-- Generator: Sketch 53.2 (72643) - https://sketchapp.com -->
    <title>Microsoft edge</title>
    <desc>Created with Sketch.</desc>
    <g id="1-Part-1-✓" stroke="none" stroke-width="1" fill="none" fill-rule="evenodd">
        <g id="Store-Locator-Result-Copy" transform="translate(-377.000000, -631.000000)" fill="#2196F3" fill-rule="nonzero">
            <g id="Group-2" transform="translate(348.000000, 631.000000)">
                <g id="Microsoft-edge" transform="translate(29.000000, 0.000000)">
                    <path d="M0,28.2393798 L0.0357209302,28.2393798 C0.412775194,25.2586667 1.10734884,22.4049612 2.11150388,19.6703256 C3.11565891,16.9356899 4.47702326,14.3717209 6.19162791,11.9704806 C7.90623256,9.56924031 9.88675969,7.48948837 12.1332093,5.72725581 C14.3796589,3.96502326 17.0230078,2.57587597 20.0632558,1.55981395 C23.1035039,0.543751938 26.3739535,0.0357209302 29.8706357,0.0357209302 C35.335938,0.0357209302 40.2297054,1.2819845 44.559876,3.77848062 C48.8900465,6.27497674 52.3629147,9.86294574 54.9903876,14.5463566 C57.4511628,18.967814 58.6815504,24.1949767 58.6815504,30.227845 L58.6815504,36.8957519 L18.7653953,36.8957519 C18.7892093,39.5192558 19.4202791,41.7974574 20.6625736,43.7263876 C21.9048682,45.6553178 23.5202481,47.104 25.5047442,48.0724341 C27.4892403,49.0408682 29.7317209,49.7155969 32.2282171,50.0926512 C34.7307785,50.4698133 37.2729285,50.5058627 39.7851783,50.199814 C42.2942613,49.9011017 44.766443,49.3478862 47.1635349,48.5487132 C49.3487158,47.8505443 51.4219641,46.8413229 53.3194419,45.552124 L53.3194419,58.9276279 C51.1444341,60.2294574 48.4296434,61.3169612 45.1790388,62.1901395 C41.9284341,63.0633178 38.2333023,63.5157829 34.0936434,63.5395969 C29.9539845,63.5634109 26.2191628,62.9363101 22.8812403,61.6582946 C18.412155,59.9317829 14.7289302,56.9867907 11.8315659,52.8272868 C8.93420155,48.6677829 7.46170543,44.2622016 7.41407752,39.6264186 C7.34263566,33.9031318 8.65637209,29.0331783 11.3513178,25.0125891 C14.0462636,20.992 17.8922171,17.8207752 22.8812403,15.5028837 C21.7461085,16.9237829 20.8253023,18.408186 20.1148527,19.956093 C19.4044031,21.504 18.8606512,23.3932403 18.4835969,25.615876 L41.0115969,25.615876 C41.2121006,23.9569731 41.1153316,22.2756124 40.7258295,20.6506667 C40.3487752,19.1622946 39.7931163,17.9596899 39.0588527,17.0507907 C38.3245891,16.1418915 37.4911008,15.352062 36.5583876,14.6932093 C35.6880004,14.0619682 34.7236277,13.5717455 33.7007132,13.2405581 C32.7322791,12.9349457 31.8432248,12.6888682 31.0414884,12.5142326 C30.2397519,12.3395969 29.5769302,12.2364031 29.0530233,12.2125891 L28.2751008,12.1689302 C25.084031,12.288 22.012031,12.811907 19.0670388,13.7485891 C16.1220465,14.6852713 13.4826667,15.9196279 11.1409612,17.4556279 C8.79925581,18.9916279 6.71553488,20.6546357 4.89773643,22.4406822 C3.07993798,24.2267287 1.44074419,26.1596279 0,28.2393798 Z" id="Path"></path>
                </g>
            </g>
        </g>
    </g>
</svg>