<?xml version="1.0" encoding="UTF-8"?>
<svg width="64px" height="64px" viewBox="0 0 64 64" version="1.1" xmlns="http://www.w3.org/2000/svg" xmlns:xlink="http://www.w3.org/1999/xlink">
    <!-- Generator: Sketch 53.2 (72643) - https://sketchapp.com -->
    <title>Safari</title>
    <desc>Created with Sketch.</desc>
    <defs>
        <linearGradient x1="50.016%" y1="0.0096%" x2="50.016%" y2="100.0032%" id="linearGradient-1">
            <stop stop-color="#19D7FF" offset="0%"></stop>
            <stop stop-color="#1E64F0" offset="100%"></stop>
        </linearGradient>
    </defs>
    <g id="1-Part-1-✓" stroke="none" stroke-width="1" fill="none" fill-rule="evenodd">
        <g id="Store-Locator-Result-Copy" transform="translate(-658.000000, -631.000000)">
            <g id="Group-5" transform="translate(650.000000, 631.000000)">
                <g id="Safari" transform="translate(8.000000, 0.000000)">
                    <circle id="Oval" fill="url(#linearGradient-1)" fill-rule="nonzero" cx="32" cy="32" r="31.7460317"></circle>
                    <path d="M32,3.35238095 L32,8.02539683 M32,55.8222222 L32,60.4952381 M36.9777778,3.80952381 L36.1650794,8.43174603 M27.8349206,55.415873 L27.0222222,60.0380952 M41.752381,5.07936508 L40.1777778,9.4984127 M23.8222222,54.3492063 L22.247619,58.768254 M27.0222222,3.80952381 L27.8349206,8.43174603 M36.1650794,55.415873 L36.9777778,60.0380952 M22.247619,5.07936508 L23.8222222,9.4984127 M40.1777778,54.3492063 L41.752381,58.768254 M17.7269841,7.21269841 L20.0634921,11.2761905 M43.9365079,52.6222222 L46.2730159,56.6349206 M13.6634921,10.0571429 L16.6603175,13.6126984 M47.3396825,50.2349206 L50.3365079,53.7904762 M10.1079365,13.5619048 L13.7142857,16.5587302 M50.2857143,47.2888889 L53.8920635,50.2857143 M7.26349206,17.6761905 L11.3269841,20.0126984 M52.6730159,43.8857143 L56.7365079,46.2222222 M5.18095238,22.1460317 L9.54920635,23.7714286 M54.4507937,40.0761905 L58.8190476,41.7015873 M3.86031746,26.9714286 L8.48253968,27.784127 M55.5174603,36.0634921 L60.1396825,36.8761905 M3.45396825,31.9492063 L8.12698413,31.9492063 M55.8730159,31.9492063 L60.5460317,31.9492063 M3.86031746,36.8761905 L8.48253968,36.0634921 M55.5174603,27.784127 L60.1396825,26.9714286 M5.18095238,41.7015873 L9.54920635,40.0761905 M54.4507937,23.7714286 L58.8190476,22.1460317 M7.26349206,46.2222222 L11.3269841,43.8857143 M52.6730159,20.0126984 L56.7365079,17.6761905 M10.1079365,50.2857143 L13.7142857,47.2888889 M50.2857143,16.5587302 L53.8920635,13.5619048 M13.6634921,53.7904762 L16.6603175,50.2349206 M47.3396825,13.6126984 L50.3365079,10.0571429 M17.7269841,56.6349206 L20.0634921,52.6222222 M43.9365079,11.2761905 L46.2730159,7.21269841 M29.5111111,3.5047619 L29.7142857,6.04444444 M34.2857143,57.8539683 L34.4888889,60.3936508 M24.584127,4.36825397 L25.2444444,6.80634921 M38.7555556,57.0412698 L39.415873,59.5301587 M19.9111111,6.04444444 L20.9777778,8.38095238 M42.9714286,55.5174603 L44.0888889,57.8031746 M15.5936508,8.53333333 L17.0666667,10.615873 M46.9333333,53.231746 L48.4063492,55.3142857 M11.784127,11.7333333 L13.6126984,13.5111111 M50.3873016,50.3365079 L52.215873,52.1142857 M8.58412698,15.5428571 L10.7174603,17.015873 M53.2825397,46.831746 L55.415873,48.3047619 M6.14603175,19.8603175 L8.43174603,20.9269841 M55.568254,42.9206349 L57.8539683,43.9873016 M4.41904762,24.5333333 L6.90793651,25.1936508 M57.0920635,38.6539683 L59.5809524,39.3142857 M3.55555556,29.4095238 L6.0952381,29.6634921 M57.9047619,34.184127 L60.4444444,34.4380952 M3.55555556,34.4380952 L6.0952381,34.184127 M57.9047619,29.6634921 L60.4444444,29.4095238 M4.41904762,39.3142857 L6.90793651,38.6539683 M57.0920635,25.1936508 L59.5809524,24.5333333 M6.14603175,43.9873016 L8.43174603,42.9206349 M55.568254,20.9269841 L57.8539683,19.8603175 M8.58412698,48.3047619 L10.7174603,46.831746 M53.2825397,17.015873 L55.415873,15.5428571 M15.5936508,55.3142857 L17.0666667,53.231746 M46.9333333,10.615873 L48.4063492,8.53333333 M19.9111111,57.8031746 L21.0285714,55.5174603 M42.9714286,8.38095238 L44.0888889,6.04444444 M24.584127,59.5301587 L25.2444444,57.0412698 M38.7555556,6.80634921 L39.415873,4.36825397 M29.5111111,60.3936508 L29.7142857,57.8539683 M34.2857143,6.04444444 L34.4888889,3.5047619" id="Shape" stroke="#FFFFFF" stroke-width="0.507936508"></path>
                    <polygon id="Path" fill="#FF0000" fill-rule="nonzero" points="53.6888889 10.1587302 29.3079365 29.3079365 31.9492063 31.9492063"></polygon>
                    <polygon id="Path" fill="#D01414" fill-rule="nonzero" points="31.9492063 31.9492063 34.9968254 34.9968254 53.6888889 10.1587302"></polygon>
                    <polygon id="Path" fill="#FFFFFF" fill-rule="nonzero" points="29.3079365 29.3079365 10.1587302 53.6888889 31.9492063 31.9492063"></polygon>
                    <polygon id="Path" fill="#ACACAC" fill-rule="nonzero" points="10.1587302 53.6888889 34.9968254 34.9968254 31.9492063 31.9492063"></polygon>
                </g>
            </g>
        </g>
    </g>
</svg>